<svg width="596" height="552" viewBox="0 0 596 552" fill="none" xmlns="http://www.w3.org/2000/svg">
<g style="mix-blend-mode:color-dodge">
<g style="mix-blend-mode:screen">
<path fill-rule="evenodd" clip-rule="evenodd" d="M103.904 25.8995C103.904 24.8993 103.308 23.9954 102.389 23.6015C101.469 23.2076 100.404 23.3996 99.6795 24.0895L36.8094 83.9887C36.3141 84.4606 36.0339 85.1147 36.0339 85.7988V250.018H14.5833C13.2026 250.018 12.0833 251.138 12.0833 252.518V290.333C5.91451 291.504 1.25 296.923 1.25 303.433C1.25 310.797 7.21954 316.766 14.5833 316.766C21.9471 316.766 27.9167 310.797 27.9167 303.433C27.9167 296.923 23.2522 291.504 17.0833 290.333V255.018H38.5339C39.9146 255.018 41.0339 253.899 41.0339 252.518V86.8699L98.904 31.7343V52.8541C98.904 54.2349 100.023 55.3541 101.404 55.3541H234.022L262.566 86.765V117.242H138.453C136.676 112.853 132.374 109.758 127.35 109.758C120.737 109.758 115.375 115.122 115.375 121.738C115.375 128.354 120.737 133.718 127.35 133.718C132.502 133.718 136.894 130.464 138.584 125.898L235.641 152.072L215.017 176.143H133.338H98.4102C97.0427 176.143 95.9289 177.241 95.9104 178.609L94.9458 250.018H74.4597C73.079 250.018 71.9597 251.138 71.9597 252.518V290.333C65.7909 291.504 61.1263 296.923 61.1263 303.433C61.1263 310.797 67.0959 316.766 74.4597 316.766C81.8235 316.766 87.793 310.797 87.793 303.433C87.793 296.923 83.1285 291.504 76.9597 290.333V255.018H96.3764L148.801 307.463V362.334C148.801 362.99 149.059 363.621 149.52 364.088L216.661 432.243V517.569H197.332C196.162 511.4 190.742 506.735 184.233 506.735C176.869 506.735 170.9 512.705 170.9 520.069C170.9 527.432 176.869 533.402 184.233 533.402C190.742 533.402 196.162 528.737 197.332 522.569H219.161C219.851 522.569 220.511 522.283 220.984 521.779L266.889 472.862C267.324 472.398 267.566 471.786 267.566 471.151V399.329L303.006 364.834H375.837C376.887 364.834 377.825 364.178 378.185 363.192L403.669 293.509C404.195 293.579 404.731 293.616 405.276 293.616C411.889 293.616 417.251 288.252 417.251 281.636C417.251 275.02 411.889 269.656 405.276 269.656C398.662 269.656 393.3 275.02 393.3 281.636C393.3 284.216 394.116 286.606 395.503 288.562L379.681 306.923H272.374L230.207 245.12C229.742 244.437 228.969 244.028 228.142 244.028H185.483L138.337 181.143H216.167C216.897 181.143 217.59 180.824 218.065 180.269L242.016 152.316C242.574 151.665 242.759 150.772 242.506 149.952C242.253 149.132 241.597 148.499 240.768 148.276L144.227 122.242H265.066C266.447 122.242 267.566 121.122 267.566 119.742V85.7988C267.566 85.177 267.334 84.5776 266.916 84.1174L236.978 51.1728C236.504 50.6514 235.832 50.3541 235.128 50.3541H103.904V25.8995ZM153.069 304.66L99.9263 251.497L100.877 181.143H132.088L182.233 248.028C182.705 248.658 183.446 249.028 184.233 249.028H226.822L268.989 310.832C269.454 311.514 270.227 311.923 271.054 311.923H380.827C381.554 311.923 382.246 311.606 382.721 311.055L398.718 292.491L374.09 359.834H301.99C301.338 359.834 300.713 360.088 300.246 360.542L265.029 394.821L223.657 356.255V338.495C229.826 337.325 234.49 331.905 234.49 325.396C234.49 318.032 228.52 312.063 221.157 312.063C213.793 312.063 207.823 318.032 207.823 325.396C207.823 331.905 212.488 337.325 218.657 338.495V357.342C218.657 358.036 218.945 358.698 219.452 359.171L262.566 399.361V470.161L221.661 513.751V431.218C221.661 430.561 221.403 429.931 220.942 429.463L153.801 361.309V306.428C153.801 305.765 153.538 305.129 153.069 304.66ZM107.032 361.335C107.032 368.699 113.001 374.669 120.365 374.669C123.143 374.669 125.722 373.819 127.857 372.366L157.783 402.303V470.274L121.368 515.81V437.208V436.183L120.649 435.453L53.5081 367.299V327.392H48.5081V368.324V369.348L49.2272 370.078L116.368 438.232V518.567H92.5489C91.3787 512.398 85.9588 507.733 79.4495 507.733C72.0857 507.733 66.1162 513.703 66.1162 521.067C66.1162 528.431 72.0857 534.4 79.4495 534.4C85.9588 534.4 91.3787 529.736 92.5489 523.567H120.365C121.125 523.567 121.843 523.221 122.318 522.628L162.235 472.712C162.59 472.269 162.783 471.718 162.783 471.151V401.268C162.783 400.605 162.519 399.97 162.051 399.501L131.393 368.832C132.848 366.695 133.698 364.115 133.698 361.335C133.698 353.972 127.729 348.002 120.365 348.002C113.001 348.002 107.032 353.972 107.032 361.335ZM98.41 95.7735C103.914 95.7735 108.379 91.3094 108.379 85.7987C108.379 80.2879 103.914 75.8238 98.41 75.8238C92.906 75.8238 88.4409 80.2879 88.4409 85.7987C88.4409 91.3094 92.906 95.7735 98.41 95.7735ZM98.41 100.773C106.677 100.773 113.379 94.069 113.379 85.7987C113.379 77.5283 106.677 70.8238 98.41 70.8238C90.1428 70.8238 83.4409 77.5283 83.4409 85.7987C83.4409 94.069 90.1428 100.773 98.41 100.773Z" fill="url(#paint0_angular_195_80)"/>
</g>
</g>
<g style="mix-blend-mode:lighten" opacity="0.5">
<g style="mix-blend-mode:screen">
<path fill-rule="evenodd" clip-rule="evenodd" d="M103.904 25.8995C103.904 24.8993 103.308 23.9954 102.389 23.6015C101.469 23.2076 100.404 23.3996 99.6795 24.0895L36.8094 83.9887C36.3141 84.4606 36.0339 85.1147 36.0339 85.7988V250.018H14.5833C13.2026 250.018 12.0833 251.138 12.0833 252.518V290.333C5.91451 291.504 1.25 296.923 1.25 303.433C1.25 310.797 7.21954 316.766 14.5833 316.766C21.9471 316.766 27.9167 310.797 27.9167 303.433C27.9167 296.923 23.2522 291.504 17.0833 290.333V255.018H38.5339C39.9146 255.018 41.0339 253.899 41.0339 252.518V86.8699L98.904 31.7343V52.8541C98.904 54.2349 100.023 55.3541 101.404 55.3541H234.022L262.566 86.765V117.242H138.453C136.676 112.853 132.374 109.758 127.35 109.758C120.737 109.758 115.375 115.122 115.375 121.738C115.375 128.354 120.737 133.718 127.35 133.718C132.502 133.718 136.894 130.464 138.584 125.898L235.641 152.072L215.017 176.143H133.338H98.4102C97.0427 176.143 95.9289 177.241 95.9104 178.609L94.9458 250.018H74.4597C73.079 250.018 71.9597 251.138 71.9597 252.518V290.333C65.7909 291.504 61.1263 296.923 61.1263 303.433C61.1263 310.797 67.0959 316.766 74.4597 316.766C81.8235 316.766 87.793 310.797 87.793 303.433C87.793 296.923 83.1285 291.504 76.9597 290.333V255.018H96.3764L148.801 307.463V362.334C148.801 362.99 149.059 363.621 149.52 364.088L216.661 432.243V517.569H197.332C196.162 511.4 190.742 506.735 184.233 506.735C176.869 506.735 170.9 512.705 170.9 520.069C170.9 527.432 176.869 533.402 184.233 533.402C190.742 533.402 196.162 528.737 197.332 522.569H219.161C219.851 522.569 220.511 522.283 220.984 521.779L266.889 472.862C267.324 472.398 267.566 471.786 267.566 471.151V399.329L303.006 364.834H375.837C376.887 364.834 377.825 364.178 378.185 363.192L403.669 293.509C404.195 293.579 404.731 293.616 405.276 293.616C411.889 293.616 417.251 288.252 417.251 281.636C417.251 275.02 411.889 269.656 405.276 269.656C398.662 269.656 393.3 275.02 393.3 281.636C393.3 284.216 394.116 286.606 395.503 288.562L379.681 306.923H272.374L230.207 245.12C229.742 244.437 228.969 244.028 228.142 244.028H185.483L138.337 181.143H216.167C216.897 181.143 217.59 180.824 218.065 180.269L242.016 152.316C242.574 151.665 242.759 150.772 242.506 149.952C242.253 149.132 241.597 148.499 240.768 148.276L144.227 122.242H265.066C266.447 122.242 267.566 121.122 267.566 119.742V85.7988C267.566 85.177 267.334 84.5776 266.916 84.1174L236.978 51.1728C236.504 50.6514 235.832 50.3541 235.128 50.3541H103.904V25.8995ZM153.069 304.66L99.9263 251.497L100.877 181.143H132.088L182.233 248.028C182.705 248.658 183.446 249.028 184.233 249.028H226.822L268.989 310.832C269.454 311.514 270.227 311.923 271.054 311.923H380.827C381.554 311.923 382.246 311.606 382.721 311.055L398.718 292.491L374.09 359.834H301.99C301.338 359.834 300.713 360.088 300.246 360.542L265.029 394.821L223.657 356.255V338.495C229.826 337.325 234.49 331.905 234.49 325.396C234.49 318.032 228.52 312.063 221.157 312.063C213.793 312.063 207.823 318.032 207.823 325.396C207.823 331.905 212.488 337.325 218.657 338.495V357.342C218.657 358.036 218.945 358.698 219.452 359.171L262.566 399.361V470.161L221.661 513.751V431.218C221.661 430.561 221.403 429.931 220.942 429.463L153.801 361.309V306.428C153.801 305.765 153.538 305.129 153.069 304.66ZM107.032 361.335C107.032 368.699 113.001 374.669 120.365 374.669C123.143 374.669 125.722 373.819 127.857 372.366L157.783 402.303V470.274L121.368 515.81V437.208V436.183L120.649 435.453L53.5081 367.299V327.392H48.5081V368.324V369.348L49.2272 370.078L116.368 438.232V518.567H92.5489C91.3787 512.398 85.9588 507.733 79.4495 507.733C72.0857 507.733 66.1162 513.703 66.1162 521.067C66.1162 528.431 72.0857 534.4 79.4495 534.4C85.9588 534.4 91.3787 529.736 92.5489 523.567H120.365C121.125 523.567 121.843 523.221 122.318 522.628L162.235 472.712C162.59 472.269 162.783 471.718 162.783 471.151V401.268C162.783 400.605 162.519 399.97 162.051 399.501L131.393 368.832C132.848 366.695 133.698 364.115 133.698 361.335C133.698 353.972 127.729 348.002 120.365 348.002C113.001 348.002 107.032 353.972 107.032 361.335ZM98.41 95.7735C103.914 95.7735 108.379 91.3094 108.379 85.7987C108.379 80.2879 103.914 75.8238 98.41 75.8238C92.906 75.8238 88.4409 80.2879 88.4409 85.7987C88.4409 91.3094 92.906 95.7735 98.41 95.7735ZM98.41 100.773C106.677 100.773 113.379 94.069 113.379 85.7987C113.379 77.5283 106.677 70.8238 98.41 70.8238C90.1428 70.8238 83.4409 77.5283 83.4409 85.7987C83.4409 94.069 90.1428 100.773 98.41 100.773Z" fill="url(#paint1_angular_195_80)"/>
</g>
</g>
<g style="mix-blend-mode:screen" opacity="0.3" clip-path="url(#clip0_195_80)">
<g style="mix-blend-mode:screen">
<path fill-rule="evenodd" clip-rule="evenodd" d="M333.429 26.4756C333.429 25.4755 332.833 24.5716 331.914 24.1777C330.995 23.7838 329.929 23.9757 329.205 24.6656L276.63 74.7564C276.134 75.2282 275.854 75.8824 275.854 76.5664V213.486H258.326C256.945 213.486 255.826 214.605 255.826 215.986V245.464C249.657 246.634 244.992 252.054 244.992 258.563C244.992 265.927 250.962 271.896 258.326 271.896C265.689 271.896 271.659 265.927 271.659 258.563C271.659 252.054 266.994 246.634 260.826 245.464V218.486H278.354C279.735 218.486 280.854 217.366 280.854 215.986V77.6376L328.429 32.3105V49.0165C328.429 50.3972 329.549 51.5165 330.929 51.5165H441.65L465.292 77.5326V102.451H361.735C360.153 98.9999 356.67 96.6026 352.626 96.6026C347.096 96.6026 342.612 101.088 342.612 106.621C342.612 112.154 347.096 116.639 352.626 116.639C356.789 116.639 360.358 114.098 361.869 110.483L442.452 132.214L425.75 151.707H357.634H328.426C327.058 151.707 325.944 152.806 325.926 154.173L325.125 213.486H308.397C307.016 213.486 305.897 214.605 305.897 215.986V245.464C299.728 246.634 295.064 252.054 295.064 258.563C295.064 265.927 301.033 271.896 308.397 271.896C315.761 271.896 321.73 265.927 321.73 258.563C321.73 252.054 317.066 246.634 310.897 245.464V218.486H326.555L370.156 262.103V307.819C370.156 308.475 370.414 309.106 370.875 309.573L426.903 366.448V437.225H413.294C412.124 431.056 406.704 426.391 400.195 426.391C392.831 426.391 386.862 432.361 386.862 439.725C386.862 447.088 392.831 453.058 400.195 453.058C406.704 453.058 412.124 448.393 413.294 442.225H429.403C430.094 442.225 430.754 441.939 431.226 441.435L469.615 400.528C470.05 400.064 470.292 399.453 470.292 398.817V338.929L499.685 310.319H560.424C561.474 310.319 562.412 309.663 562.772 308.677L584.117 250.311C584.422 250.339 584.73 250.353 585.042 250.353C590.572 250.353 595.056 245.868 595.056 240.335C595.056 234.802 590.572 230.317 585.042 230.317C579.511 230.317 575.027 234.802 575.027 240.335C575.027 242.341 575.617 244.21 576.632 245.776L563.451 261.072H474.12L438.979 209.568C438.514 208.885 437.741 208.477 436.914 208.477H401.445L362.633 156.707H426.9C427.63 156.707 428.323 156.388 428.798 155.834L448.827 132.458C449.385 131.806 449.57 130.914 449.317 130.094C449.064 129.274 448.408 128.641 447.579 128.418L369.83 107.451H467.792C469.172 107.451 470.292 106.332 470.292 104.951V76.5664C470.292 75.9447 470.06 75.3452 469.642 74.8851L444.606 47.3352C444.132 46.8138 443.46 46.5165 442.756 46.5165H333.429V26.4756ZM374.424 259.3L330.105 214.965L330.892 156.707H356.384L398.195 212.476C398.667 213.106 399.408 213.477 400.195 213.477H435.593L470.734 264.981C471.199 265.664 471.972 266.072 472.799 266.072H564.597C565.324 266.072 566.016 265.755 566.491 265.204L578.402 251.381L558.676 305.319H498.669C498.018 305.319 497.392 305.573 496.925 306.027L467.754 334.421L433.573 302.557V290.029C439.741 288.859 444.406 283.439 444.406 276.93C444.406 269.566 438.436 263.596 431.073 263.596C423.709 263.596 417.739 269.566 417.739 276.93C417.739 283.439 422.404 288.859 428.573 290.029V303.645C428.573 304.338 428.861 305 429.368 305.473L465.292 338.961V397.828L431.903 433.407V365.423C431.903 364.767 431.645 364.136 431.184 363.669L375.156 306.794V261.067C375.156 260.405 374.892 259.769 374.424 259.3ZM333.452 306.984C333.452 314.348 339.422 320.317 346.786 320.317C349.563 320.317 352.142 319.468 354.278 318.015L377.667 341.413V397.94L348.034 434.996V370.432V369.408L347.315 368.678L291.286 311.803V278.599H286.286V312.828V313.852L287.005 314.582L343.034 371.457V438.059H325.669C324.499 431.891 319.079 427.226 312.57 427.226C305.206 427.226 299.237 433.196 299.237 440.559C299.237 447.923 305.206 453.893 312.57 453.893C319.079 453.893 324.499 449.228 325.669 443.059H346.786C347.545 443.059 348.264 442.714 348.738 442.121L382.119 400.378C382.474 399.935 382.667 399.385 382.667 398.817V340.378C382.667 339.715 382.403 339.079 381.935 338.61L357.814 314.48C359.269 312.344 360.119 309.763 360.119 306.984C360.119 299.62 354.149 293.651 346.786 293.651C339.422 293.651 333.452 299.62 333.452 306.984ZM328.425 84.0891C332.575 84.0891 335.943 80.7228 335.943 76.5664C335.943 72.4099 332.575 69.0437 328.425 69.0437C324.275 69.0437 320.907 72.4099 320.907 76.5664C320.907 80.7228 324.275 84.0891 328.425 84.0891ZM328.425 89.0891C335.339 89.0891 340.943 83.4825 340.943 76.5664C340.943 69.6503 335.339 64.0437 328.425 64.0437C321.512 64.0437 315.907 69.6503 315.907 76.5664C315.907 83.4825 321.512 89.0891 328.425 89.0891Z" fill="url(#paint2_angular_195_80)"/>
</g>
</g>
<defs>
<radialGradient id="paint0_angular_195_80" cx="0" cy="0" r="1" gradientUnits="userSpaceOnUse" gradientTransform="translate(209.25 278.9) rotate(-58.3171) scale(172.757 140.668)">
<stop stop-color="#0089D6"/>
<stop offset="0.708333" stop-color="#9CEDFF"/>
<stop offset="1" stop-color="#0094FF"/>
</radialGradient>
<radialGradient id="paint1_angular_195_80" cx="0" cy="0" r="1" gradientUnits="userSpaceOnUse" gradientTransform="translate(209.25 278.9) rotate(-58.3171) scale(172.757 140.668)">
<stop stop-color="#0089D6"/>
<stop offset="0.708333" stop-color="#9CEDFF"/>
<stop offset="1" stop-color="#0094FF"/>
</radialGradient>
<radialGradient id="paint2_angular_195_80" cx="0" cy="0" r="1" gradientUnits="userSpaceOnUse" gradientTransform="translate(420.024 238.934) rotate(-58.3118) scale(145.353 118.365)">
<stop stop-color="#0089D6"/>
<stop offset="0.708333" stop-color="#9CEDFF"/>
<stop offset="1" stop-color="#0094FF"/>
</radialGradient>
<clipPath id="clip0_195_80">
<rect width="350" height="461" fill="white" transform="translate(245.25 0.399414)"/>
</clipPath>
</defs>
</svg>
