<svg width="416" height="641" viewBox="0 0 416 641" fill="none" xmlns="http://www.w3.org/2000/svg">
<path fill-rule="evenodd" clip-rule="evenodd" d="M101.139 0.202104C102.058 0.595998 102.654 1.4999 102.654 2.50006V26.9547H233.878C234.582 26.9547 235.254 27.252 235.728 27.7734L265.666 60.718C266.084 61.1782 266.316 61.7776 266.316 62.3993V96.3423C266.316 97.723 265.197 98.8423 263.816 98.8423H142.977L239.518 124.876C240.347 125.1 241.003 125.733 241.256 126.553C241.509 127.373 241.324 128.265 240.766 128.917L216.815 156.87C216.34 157.424 215.647 157.743 214.917 157.743H137.087L184.233 220.629H226.892C227.719 220.629 228.492 221.037 228.957 221.72L271.124 283.523H378.431L394.253 265.163C392.866 263.207 392.05 260.817 392.05 258.237C392.05 251.62 397.412 246.257 404.026 246.257C410.639 246.257 416.001 251.62 416.001 258.237C416.001 264.853 410.639 270.216 404.026 270.216C403.481 270.216 402.945 270.18 402.419 270.11L376.935 339.793C376.575 340.779 375.637 341.434 374.587 341.434H301.756L266.316 375.929V447.751C266.316 448.387 266.074 448.999 265.639 449.462L219.734 498.38C219.261 498.883 218.601 499.169 217.911 499.169H196.082C194.912 505.338 189.492 510.002 182.983 510.002C175.619 510.002 169.65 504.033 169.65 496.669C169.65 489.305 175.619 483.336 182.983 483.336C189.492 483.336 194.912 488 196.082 494.169H215.411V408.843L148.27 340.689C147.809 340.221 147.551 339.591 147.551 338.934V284.064L95.1264 231.619H75.7097V266.934C81.8785 268.104 86.543 273.524 86.543 280.033C86.543 287.397 80.5735 293.367 73.2097 293.367C65.8459 293.367 59.8763 287.397 59.8763 280.033C59.8763 273.524 64.5409 268.104 70.7097 266.934V229.119C70.7097 227.738 71.829 226.619 73.2097 226.619H93.6958L94.6604 155.209C94.6789 153.842 95.7927 152.743 97.1602 152.743H132.088H213.767L234.391 128.672L137.334 102.499C135.644 107.065 131.252 110.319 126.1 110.319C119.487 110.319 114.125 104.955 114.125 98.3388C114.125 91.7225 119.487 86.3589 126.1 86.3589C131.124 86.3589 135.426 89.4541 137.203 93.8423H261.316V63.3656L232.772 31.9547H100.154C98.7733 31.9547 97.654 30.8354 97.654 29.4547V8.33493L39.7839 63.4705V229.119C39.7839 230.5 38.6646 231.619 37.2839 231.619H15.8333V266.934C22.0022 268.104 26.6667 273.524 26.6667 280.033C26.6667 287.397 20.6971 293.367 13.3333 293.367C5.96954 293.367 0 287.397 0 280.033C0 273.524 4.66451 268.104 10.8333 266.934V229.119C10.8333 227.738 11.9526 226.619 13.3333 226.619H34.7839V62.3993C34.7839 61.7153 35.0641 61.0612 35.5594 60.5893L98.4295 0.690046C99.1537 0.000143972 100.219 -0.191789 101.139 0.202104ZM98.6763 228.098L151.819 281.261C152.288 281.73 152.551 282.365 152.551 283.028V337.91L219.692 406.064C220.153 406.532 220.411 407.162 220.411 407.819V490.352L261.316 446.762V375.961L218.202 335.771C217.695 335.299 217.407 334.636 217.407 333.943V315.096C211.238 313.926 206.573 308.506 206.573 301.996C206.573 294.633 212.543 288.663 219.907 288.663C227.27 288.663 233.24 294.633 233.24 301.996C233.24 308.506 228.576 313.926 222.407 315.096V332.855L263.779 371.421L298.996 337.143C299.463 336.689 300.088 336.434 300.74 336.434H372.84L397.468 269.092L381.471 287.655C380.996 288.206 380.304 288.523 379.577 288.523H269.804C268.977 288.523 268.204 288.115 267.739 287.432L225.572 225.629H182.983C182.196 225.629 181.455 225.258 180.983 224.629L130.838 157.743H99.6267L98.6763 228.098ZM119.115 351.269C111.751 351.269 105.782 345.3 105.782 337.936C105.782 330.572 111.751 324.603 119.115 324.603C126.479 324.603 132.448 330.572 132.448 337.936C132.448 340.715 131.598 343.296 130.143 345.432L160.801 376.101C161.269 376.57 161.533 377.206 161.533 377.869V447.751C161.533 448.319 161.34 448.869 160.985 449.313L121.068 499.229C120.593 499.822 119.875 500.167 119.115 500.167H91.2989C90.1287 506.336 84.7088 511.001 78.1995 511.001C70.8357 511.001 64.8662 505.031 64.8662 497.667C64.8662 490.304 70.8357 484.334 78.1995 484.334C84.7088 484.334 90.1287 488.999 91.2989 495.167H115.118V414.833L47.9772 346.679L47.2581 345.949V344.924V303.993H52.2581V343.9L119.399 412.054L120.118 412.784V413.808V492.41L156.533 446.875V378.904L126.607 348.967C124.472 350.42 121.893 351.269 119.115 351.269ZM107.129 62.3992C107.129 67.91 102.664 72.3741 97.16 72.3741C91.656 72.3741 87.1909 67.91 87.1909 62.3992C87.1909 56.8885 91.656 52.4244 97.16 52.4244C102.664 52.4244 107.129 56.8885 107.129 62.3992ZM112.129 62.3992C112.129 70.6696 105.427 77.3741 97.16 77.3741C88.8928 77.3741 82.1909 70.6696 82.1909 62.3992C82.1909 54.1289 88.8928 47.4244 97.16 47.4244C105.427 47.4244 112.129 54.1289 112.129 62.3992ZM43.9489 586.188H56.392C55.9943 582.816 55.0852 579.824 53.6648 577.21C52.2633 574.597 50.4451 572.39 48.2102 570.591C45.9754 568.773 43.4091 567.39 40.5114 566.443C37.6326 565.496 34.5076 565.023 31.1364 565.023C26.0227 565.023 21.4205 566.197 17.3295 568.545C13.2386 570.875 10 574.265 7.61364 578.716C5.22727 583.167 4.03409 588.564 4.03409 594.909C4.03409 601.235 5.20833 606.623 7.55682 611.074C9.92424 615.525 13.1439 618.924 17.2159 621.273C21.3068 623.621 25.947 624.795 31.1364 624.795C34.8674 624.795 38.2102 624.237 41.1648 623.119C44.1383 621.983 46.6951 620.449 48.8352 618.517C50.9943 616.566 52.7083 614.36 53.9773 611.898C55.2652 609.417 56.0701 606.841 56.392 604.17L43.9489 604.114C43.6648 605.667 43.1534 607.049 42.4148 608.261C41.6951 609.474 40.786 610.506 39.6875 611.358C38.589 612.191 37.3295 612.826 35.9091 613.261C34.5076 613.697 32.983 613.915 31.3352 613.915C28.3996 613.915 25.8144 613.195 23.5795 611.756C21.3447 610.316 19.6023 608.186 18.3523 605.364C17.1212 602.542 16.5057 599.057 16.5057 594.909C16.5057 590.875 17.1212 587.447 18.3523 584.625C19.5833 581.784 21.3163 579.625 23.5511 578.148C25.786 576.651 28.4091 575.903 31.4205 575.903C33.0871 575.903 34.6307 576.14 36.0511 576.614C37.4905 577.087 38.7595 577.769 39.858 578.659C40.9564 579.549 41.8561 580.629 42.5568 581.898C43.2576 583.148 43.7216 584.578 43.9489 586.188ZM68.6861 639.994C70.0308 640.241 71.4702 640.364 73.0043 640.364C75.9967 640.364 78.5535 639.881 80.6747 638.915C82.7959 637.968 84.5478 636.614 85.9304 634.852C87.3319 633.11 88.4399 631.064 89.2543 628.716L106.214 580.364H93.402L84.2827 612.409H83.8281L74.794 580.364H62.0668L77.7202 625.25L77.0099 627.097C76.4796 628.46 75.7884 629.426 74.9361 629.994C74.1027 630.562 73.1084 630.828 71.9531 630.79C70.8168 630.752 69.5384 630.515 68.1179 630.08L65.3906 639.114C66.2618 639.474 67.3603 639.767 68.6861 639.994ZM112.635 565.818V624H124.567V617.011H125.107C125.656 618.224 126.451 619.426 127.493 620.619C128.535 621.794 129.87 622.769 131.499 623.545C133.146 624.322 135.144 624.71 137.493 624.71C140.807 624.71 143.8 623.858 146.47 622.153C149.16 620.43 151.281 617.901 152.834 614.568C154.406 611.216 155.192 607.106 155.192 602.239C155.192 597.239 154.387 593.081 152.777 589.767C151.167 586.434 149.018 583.943 146.328 582.295C143.639 580.629 140.703 579.795 137.521 579.795C135.078 579.795 133.033 580.212 131.385 581.045C129.756 581.86 128.43 582.883 127.408 584.114C126.404 585.326 125.637 586.519 125.107 587.693H124.737V565.818H112.635ZM125.561 608.972C124.841 607.04 124.482 604.776 124.482 602.182C124.482 599.587 124.841 597.333 125.561 595.42C126.281 593.508 127.313 592.03 128.658 590.989C130.021 589.947 131.688 589.426 133.658 589.426C135.646 589.426 137.322 589.966 138.686 591.045C140.05 592.125 141.082 593.621 141.783 595.534C142.483 597.447 142.834 599.663 142.834 602.182C142.834 604.72 142.474 606.964 141.754 608.915C141.053 610.847 140.021 612.362 138.658 613.46C137.294 614.54 135.627 615.08 133.658 615.08C131.707 615.08 130.05 614.549 128.686 613.489C127.322 612.409 126.281 610.903 125.561 608.972ZM171.562 622.125C174.801 623.943 178.665 624.852 183.153 624.852C186.752 624.852 189.924 624.303 192.67 623.205C195.436 622.087 197.689 620.534 199.432 618.545C201.193 616.538 202.358 614.189 202.926 611.5L191.733 610.761C191.316 611.86 190.71 612.788 189.915 613.545C189.119 614.303 188.163 614.871 187.045 615.25C185.928 615.629 184.697 615.818 183.352 615.818C181.326 615.818 179.574 615.392 178.097 614.54C176.619 613.688 175.473 612.475 174.659 610.903C173.864 609.331 173.466 607.466 173.466 605.307V605.278H203.182V601.955C203.182 598.242 202.661 595.004 201.619 592.239C200.578 589.455 199.119 587.144 197.244 585.307C195.388 583.47 193.21 582.097 190.71 581.188C188.229 580.259 185.549 579.795 182.67 579.795C178.39 579.795 174.659 580.742 171.477 582.636C168.314 584.53 165.862 587.172 164.119 590.562C162.377 593.953 161.506 597.892 161.506 602.381C161.506 606.983 162.377 610.97 164.119 614.341C165.862 617.693 168.343 620.288 171.562 622.125ZM173.477 597.778C173.55 596.211 173.954 594.782 174.688 593.489C175.483 592.068 176.581 590.941 177.983 590.108C179.403 589.256 181.032 588.83 182.869 588.83C184.631 588.83 186.174 589.218 187.5 589.994C188.845 590.752 189.896 591.803 190.653 593.148C191.411 594.492 191.79 596.036 191.79 597.778H173.477ZM222.812 580.364H211.08V624H223.182V599.312C223.182 597.532 223.58 595.96 224.375 594.597C225.189 593.233 226.288 592.172 227.67 591.415C229.072 590.638 230.663 590.25 232.443 590.25C233.277 590.25 234.195 590.316 235.199 590.449C236.203 590.581 236.989 590.733 237.557 590.903V580.165C237.027 580.032 236.411 579.928 235.71 579.852C235.009 579.776 234.356 579.739 233.75 579.739C231.307 579.739 229.148 580.439 227.273 581.841C225.398 583.224 224.062 585.269 223.267 587.977H222.812V580.364ZM244.041 624H264.666C270.575 624 275.651 622.835 279.893 620.506C284.155 618.176 287.422 614.833 289.695 610.477C291.986 606.121 293.132 600.913 293.132 594.852C293.132 588.811 291.986 583.621 289.695 579.284C287.422 574.947 284.174 571.623 279.95 569.312C275.727 566.983 270.689 565.818 264.837 565.818H244.041V624ZM264.155 613.46H256.342V576.358H264.183C267.82 576.358 270.878 577.002 273.359 578.29C275.84 579.578 277.706 581.585 278.956 584.312C280.225 587.04 280.859 590.553 280.859 594.852C280.859 599.189 280.225 602.731 278.956 605.477C277.706 608.205 275.831 610.222 273.331 611.528C270.85 612.816 267.791 613.46 264.155 613.46ZM314.119 580.364H302.017V624H314.119V580.364ZM303.466 572.949C304.754 574.142 306.297 574.739 308.097 574.739C309.896 574.739 311.43 574.142 312.699 572.949C313.987 571.737 314.631 570.288 314.631 568.602C314.631 566.936 313.987 565.506 312.699 564.312C311.43 563.1 309.896 562.494 308.097 562.494C306.297 562.494 304.754 563.1 303.466 564.312C302.197 565.506 301.562 566.936 301.562 568.602C301.562 570.288 302.197 571.737 303.466 572.949ZM335.916 624V598.773C335.935 596.898 336.286 595.297 336.967 593.972C337.668 592.627 338.634 591.604 339.865 590.903C341.115 590.203 342.554 589.852 344.183 589.852C346.607 589.852 348.511 590.61 349.893 592.125C351.276 593.621 351.958 595.705 351.939 598.375V624H364.041V596.216C364.041 592.826 363.416 589.909 362.166 587.466C360.916 585.004 359.164 583.11 356.911 581.784C354.657 580.458 352.015 579.795 348.984 579.795C345.746 579.795 342.99 580.544 340.717 582.04C338.445 583.517 336.825 585.525 335.859 588.062H335.348V580.364H323.814V624H335.916ZM381.847 622.04C385.066 623.915 388.883 624.852 393.295 624.852C397.708 624.852 401.515 623.915 404.716 622.04C407.936 620.146 410.417 617.513 412.159 614.142C413.902 610.752 414.773 606.822 414.773 602.352C414.773 597.845 413.902 593.905 412.159 590.534C410.417 587.144 407.936 584.511 404.716 582.636C401.515 580.742 397.708 579.795 393.295 579.795C388.883 579.795 385.066 580.742 381.847 582.636C378.646 584.511 376.174 587.144 374.432 590.534C372.689 593.905 371.818 597.845 371.818 602.352C371.818 606.822 372.689 610.752 374.432 614.142C376.174 617.513 378.646 620.146 381.847 622.04ZM398.381 613.773C397.036 614.909 395.36 615.477 393.352 615.477C391.326 615.477 389.621 614.909 388.239 613.773C386.875 612.617 385.843 611.045 385.142 609.057C384.46 607.068 384.119 604.805 384.119 602.267C384.119 599.729 384.46 597.466 385.142 595.477C385.843 593.489 386.875 591.917 388.239 590.761C389.621 589.606 391.326 589.028 393.352 589.028C395.36 589.028 397.036 589.606 398.381 590.761C399.725 591.917 400.739 593.489 401.42 595.477C402.121 597.466 402.472 599.729 402.472 602.267C402.472 604.805 402.121 607.068 401.42 609.057C400.739 611.045 399.725 612.617 398.381 613.773Z" fill="#333333"/>
</svg>
