<svg width="416" height="642" viewBox="0 0 416 642" fill="none" xmlns="http://www.w3.org/2000/svg">
<path fill-rule="evenodd" clip-rule="evenodd" d="M101.139 1.17183C102.058 1.56572 102.654 2.46963 102.654 3.46979V27.9245H233.878C234.582 27.9245 235.254 28.2217 235.728 28.7431L265.666 61.6877C266.084 62.1479 266.316 62.7473 266.316 63.3691V97.312C266.316 98.6927 265.197 99.812 263.816 99.812H142.977L239.518 125.846C240.347 126.07 241.003 126.702 241.256 127.522C241.509 128.342 241.324 129.235 240.766 129.887L216.815 157.84C216.34 158.394 215.647 158.713 214.917 158.713H137.087L184.233 221.599H226.892C227.719 221.599 228.492 222.007 228.957 222.69L271.124 284.493H378.431L394.253 266.132C392.866 264.177 392.05 261.787 392.05 259.206C392.05 252.59 397.412 247.226 404.026 247.226C410.639 247.226 416.001 252.59 416.001 259.206C416.001 265.823 410.639 271.186 404.026 271.186C403.481 271.186 402.945 271.15 402.419 271.079L376.935 340.763C376.575 341.748 375.637 342.404 374.587 342.404H301.756L266.316 376.899V448.721C266.316 449.357 266.074 449.968 265.639 450.432L219.734 499.35C219.261 499.853 218.601 500.139 217.911 500.139H196.082C194.912 506.308 189.492 510.972 182.983 510.972C175.619 510.972 169.65 505.003 169.65 497.639C169.65 490.275 175.619 484.306 182.983 484.306C189.492 484.306 194.912 488.97 196.082 495.139H215.411V409.813L148.27 341.659C147.809 341.191 147.551 340.561 147.551 339.904V285.033L95.1264 232.589H75.7097V267.904C81.8785 269.074 86.543 274.494 86.543 281.003C86.543 288.367 80.5735 294.336 73.2097 294.336C65.8459 294.336 59.8763 288.367 59.8763 281.003C59.8763 274.494 64.5409 269.074 70.7097 267.904V230.089C70.7097 228.708 71.829 227.589 73.2097 227.589H93.6958L94.6604 156.179C94.6789 154.812 95.7927 153.713 97.1602 153.713H132.088H213.767L234.391 129.642L137.334 103.469C135.644 108.034 131.252 111.288 126.1 111.288C119.487 111.288 114.125 105.925 114.125 99.3085C114.125 92.6922 119.487 87.3286 126.1 87.3286C131.124 87.3286 135.426 90.4238 137.203 94.812H261.316V64.3353L232.772 32.9245H100.154C98.7733 32.9245 97.654 31.8052 97.654 30.4245V9.30466L39.7839 64.4402V230.089C39.7839 231.469 38.6646 232.589 37.2839 232.589H15.8333V267.904C22.0022 269.074 26.6667 274.494 26.6667 281.003C26.6667 288.367 20.6971 294.336 13.3333 294.336C5.96954 294.336 0 288.367 0 281.003C0 274.494 4.66451 269.074 10.8333 267.904V230.089C10.8333 228.708 11.9526 227.589 13.3333 227.589H34.7839V63.3691C34.7839 62.685 35.0641 62.0309 35.5594 61.5591L98.4295 1.65977C99.1537 0.969871 100.219 0.777938 101.139 1.17183ZM98.6763 229.068L151.819 282.231C152.288 282.699 152.551 283.335 152.551 283.998V338.879L219.692 407.034C220.153 407.501 220.411 408.132 220.411 408.788V491.321L261.316 447.732V376.931L218.202 336.741C217.695 336.268 217.407 335.606 217.407 334.912V316.066C211.238 314.895 206.573 309.475 206.573 302.966C206.573 295.602 212.543 289.633 219.907 289.633C227.27 289.633 233.24 295.602 233.24 302.966C233.24 309.475 228.576 314.895 222.407 316.066V333.825L263.779 372.391L298.996 338.113C299.463 337.658 300.088 337.404 300.74 337.404H372.84L397.468 270.062L381.471 288.625C380.996 289.176 380.304 289.493 379.577 289.493H269.804C268.977 289.493 268.204 289.085 267.739 288.402L225.572 226.599H182.983C182.196 226.599 181.455 226.228 180.983 225.598L130.838 158.713H99.6267L98.6763 229.068ZM119.115 352.239C111.751 352.239 105.782 346.269 105.782 338.906C105.782 331.542 111.751 325.572 119.115 325.572C126.479 325.572 132.448 331.542 132.448 338.906C132.448 341.685 131.598 344.266 130.143 346.402L160.801 377.071C161.269 377.54 161.533 378.176 161.533 378.839V448.721C161.533 449.289 161.34 449.839 160.985 450.282L121.068 500.198C120.593 500.792 119.875 501.137 119.115 501.137H91.2989C90.1287 507.306 84.7088 511.97 78.1995 511.97C70.8357 511.97 64.8662 506.001 64.8662 498.637C64.8662 491.273 70.8357 485.304 78.1995 485.304C84.7088 485.304 90.1287 489.968 91.2989 496.137H115.118V415.803L47.9772 347.648L47.2581 346.918V345.894V304.963H52.2581V344.869L119.399 413.024L120.118 413.754V414.778V493.38L156.533 447.844V379.874L126.607 349.937C124.472 351.39 121.893 352.239 119.115 352.239ZM107.129 63.369C107.129 68.8797 102.664 73.3438 97.16 73.3438C91.656 73.3438 87.1909 68.8797 87.1909 63.369C87.1909 57.8582 91.656 53.3941 97.16 53.3941C102.664 53.3941 107.129 57.8582 107.129 63.369ZM112.129 63.369C112.129 71.6393 105.427 78.3438 97.16 78.3438C88.8928 78.3438 82.1909 71.6393 82.1909 63.369C82.1909 55.0986 88.8928 48.3941 97.16 48.3941C105.427 48.3941 112.129 55.0986 112.129 63.369ZM43.9489 587.157H56.392C55.9943 583.786 55.0852 580.794 53.6648 578.18C52.2633 575.566 50.4451 573.36 48.2102 571.561C45.9754 569.742 43.4091 568.36 40.5114 567.413C37.6326 566.466 34.5076 565.992 31.1364 565.992C26.0227 565.992 21.4205 567.167 17.3295 569.515C13.2386 571.845 10 575.235 7.61364 579.686C5.22727 584.136 4.03409 589.534 4.03409 595.879C4.03409 602.205 5.20833 607.593 7.55682 612.044C9.92424 616.494 13.1439 619.894 17.2159 622.242C21.3068 624.591 25.947 625.765 31.1364 625.765C34.8674 625.765 38.2102 625.206 41.1648 624.089C44.1383 622.953 46.6951 621.419 48.8352 619.487C50.9943 617.536 52.7083 615.33 53.9773 612.867C55.2652 610.386 56.0701 607.811 56.392 605.14L43.9489 605.083C43.6648 606.636 43.1534 608.019 42.4148 609.231C41.6951 610.443 40.786 611.475 39.6875 612.328C38.589 613.161 37.3295 613.795 35.9091 614.231C34.5076 614.667 32.983 614.885 31.3352 614.885C28.3996 614.885 25.8144 614.165 23.5795 612.725C21.3447 611.286 19.6023 609.155 18.3523 606.333C17.1212 603.511 16.5057 600.027 16.5057 595.879C16.5057 591.845 17.1212 588.417 18.3523 585.595C19.5833 582.754 21.3163 580.595 23.5511 579.117C25.786 577.621 28.4091 576.873 31.4205 576.873C33.0871 576.873 34.6307 577.11 36.0511 577.583C37.4905 578.057 38.7595 578.739 39.858 579.629C40.9564 580.519 41.8561 581.599 42.5568 582.867C43.2576 584.117 43.7216 585.547 43.9489 587.157ZM68.6861 640.964C70.0308 641.21 71.4702 641.333 73.0043 641.333C75.9967 641.333 78.5535 640.85 80.6747 639.885C82.7959 638.938 84.5478 637.583 85.9304 635.822C87.3319 634.08 88.4399 632.034 89.2543 629.686L106.214 581.333H93.402L84.2827 613.379H83.8281L74.794 581.333H62.0668L77.7202 626.22L77.0099 628.066C76.4796 629.43 75.7884 630.396 74.9361 630.964C74.1027 631.532 73.1084 631.797 71.9531 631.76C70.8168 631.722 69.5384 631.485 68.1179 631.049L65.3906 640.083C66.2618 640.443 67.3603 640.737 68.6861 640.964ZM112.635 566.788V624.97H124.567V617.981H125.107C125.656 619.193 126.451 620.396 127.493 621.589C128.535 622.763 129.87 623.739 131.499 624.515C133.146 625.292 135.144 625.68 137.493 625.68C140.807 625.68 143.8 624.828 146.47 623.123C149.16 621.4 151.281 618.871 152.834 615.538C154.406 612.186 155.192 608.076 155.192 603.208C155.192 598.208 154.387 594.051 152.777 590.737C151.167 587.403 149.018 584.913 146.328 583.265C143.639 581.599 140.703 580.765 137.521 580.765C135.078 580.765 133.033 581.182 131.385 582.015C129.756 582.83 128.43 583.852 127.408 585.083C126.404 586.295 125.637 587.489 125.107 588.663H124.737V566.788H112.635ZM125.561 609.941C124.841 608.01 124.482 605.746 124.482 603.152C124.482 600.557 124.841 598.303 125.561 596.39C126.281 594.477 127.313 593 128.658 591.958C130.021 590.917 131.688 590.396 133.658 590.396C135.646 590.396 137.322 590.936 138.686 592.015C140.05 593.095 141.082 594.591 141.783 596.504C142.483 598.417 142.834 600.633 142.834 603.152C142.834 605.689 142.474 607.934 141.754 609.885C141.053 611.816 140.021 613.331 138.658 614.43C137.294 615.51 135.627 616.049 133.658 616.049C131.707 616.049 130.05 615.519 128.686 614.458C127.322 613.379 126.281 611.873 125.561 609.941ZM171.562 623.095C174.801 624.913 178.665 625.822 183.153 625.822C186.752 625.822 189.924 625.273 192.67 624.174C195.436 623.057 197.689 621.504 199.432 619.515C201.193 617.508 202.358 615.159 202.926 612.47L191.733 611.731C191.316 612.83 190.71 613.758 189.915 614.515C189.119 615.273 188.163 615.841 187.045 616.22C185.928 616.599 184.697 616.788 183.352 616.788C181.326 616.788 179.574 616.362 178.097 615.51C176.619 614.657 175.473 613.445 174.659 611.873C173.864 610.301 173.466 608.436 173.466 606.277V606.248H203.182V602.924C203.182 599.212 202.661 595.974 201.619 593.208C200.578 590.424 199.119 588.114 197.244 586.277C195.388 584.439 193.21 583.066 190.71 582.157C188.229 581.229 185.549 580.765 182.67 580.765C178.39 580.765 174.659 581.712 171.477 583.606C168.314 585.5 165.862 588.142 164.119 591.532C162.377 594.922 161.506 598.862 161.506 603.35C161.506 607.953 162.377 611.939 164.119 615.311C165.862 618.663 168.343 621.258 171.562 623.095ZM173.477 598.748C173.55 597.181 173.954 595.751 174.688 594.458C175.483 593.038 176.581 591.911 177.983 591.078C179.403 590.225 181.032 589.799 182.869 589.799C184.631 589.799 186.174 590.188 187.5 590.964C188.845 591.722 189.896 592.773 190.653 594.117C191.411 595.462 191.79 597.006 191.79 598.748H173.477ZM222.812 581.333H211.08V624.97H223.182V600.282C223.182 598.502 223.58 596.93 224.375 595.566C225.189 594.203 226.288 593.142 227.67 592.385C229.072 591.608 230.663 591.22 232.443 591.22C233.277 591.22 234.195 591.286 235.199 591.419C236.203 591.551 236.989 591.703 237.557 591.873V581.135C237.027 581.002 236.411 580.898 235.71 580.822C235.009 580.746 234.356 580.708 233.75 580.708C231.307 580.708 229.148 581.409 227.273 582.811C225.398 584.193 224.062 586.239 223.267 588.947H222.812V581.333ZM244.041 624.97H264.666C270.575 624.97 275.651 623.805 279.893 621.475C284.155 619.146 287.422 615.803 289.695 611.447C291.986 607.091 293.132 601.883 293.132 595.822C293.132 589.78 291.986 584.591 289.695 580.254C287.422 575.917 284.174 572.593 279.95 570.282C275.727 567.953 270.689 566.788 264.837 566.788H244.041V624.97ZM264.155 614.43H256.342V577.328H264.183C267.82 577.328 270.878 577.972 273.359 579.26C275.84 580.547 277.706 582.555 278.956 585.282C280.225 588.01 280.859 591.523 280.859 595.822C280.859 600.159 280.225 603.701 278.956 606.447C277.706 609.174 275.831 611.191 273.331 612.498C270.85 613.786 267.791 614.43 264.155 614.43ZM314.119 581.333H302.017V624.97H314.119V581.333ZM303.466 573.919C304.754 575.112 306.297 575.708 308.097 575.708C309.896 575.708 311.43 575.112 312.699 573.919C313.987 572.706 314.631 571.258 314.631 569.572C314.631 567.905 313.987 566.475 312.699 565.282C311.43 564.07 309.896 563.464 308.097 563.464C306.297 563.464 304.754 564.07 303.466 565.282C302.197 566.475 301.562 567.905 301.562 569.572C301.562 571.258 302.197 572.706 303.466 573.919ZM335.916 624.97V599.742C335.935 597.867 336.286 596.267 336.967 594.941C337.668 593.597 338.634 592.574 339.865 591.873C341.115 591.172 342.554 590.822 344.183 590.822C346.607 590.822 348.511 591.58 349.893 593.095C351.276 594.591 351.958 596.674 351.939 599.345V624.97H364.041V597.186C364.041 593.795 363.416 590.879 362.166 588.436C360.916 585.974 359.164 584.08 356.911 582.754C354.657 581.428 352.015 580.765 348.984 580.765C345.746 580.765 342.99 581.513 340.717 583.01C338.445 584.487 336.825 586.494 335.859 589.032H335.348V581.333H323.814V624.97H335.916ZM381.847 623.01C385.066 624.885 388.883 625.822 393.295 625.822C397.708 625.822 401.515 624.885 404.716 623.01C407.936 621.116 410.417 618.483 412.159 615.112C413.902 611.722 414.773 607.792 414.773 603.322C414.773 598.814 413.902 594.875 412.159 591.504C410.417 588.114 407.936 585.481 404.716 583.606C401.515 581.712 397.708 580.765 393.295 580.765C388.883 580.765 385.066 581.712 381.847 583.606C378.646 585.481 376.174 588.114 374.432 591.504C372.689 594.875 371.818 598.814 371.818 603.322C371.818 607.792 372.689 611.722 374.432 615.112C376.174 618.483 378.646 621.116 381.847 623.01ZM398.381 614.742C397.036 615.879 395.36 616.447 393.352 616.447C391.326 616.447 389.621 615.879 388.239 614.742C386.875 613.587 385.843 612.015 385.142 610.027C384.46 608.038 384.119 605.775 384.119 603.237C384.119 600.699 384.46 598.436 385.142 596.447C385.843 594.458 386.875 592.886 388.239 591.731C389.621 590.576 391.326 589.998 393.352 589.998C395.36 589.998 397.036 590.576 398.381 591.731C399.725 592.886 400.739 594.458 401.42 596.447C402.121 598.436 402.472 600.699 402.472 603.237C402.472 605.775 402.121 608.038 401.42 610.027C400.739 612.015 399.725 613.587 398.381 614.742Z" fill="white"/>
</svg>
