<svg width="350" height="431" viewBox="0 0 350 431" fill="none" xmlns="http://www.w3.org/2000/svg">
<g style="mix-blend-mode:screen">
<path fill-rule="evenodd" clip-rule="evenodd" d="M88.1793 3.07663C88.1793 2.07647 87.5832 1.17257 86.6639 0.778672C85.7446 0.384779 84.679 0.576712 83.9548 1.26661L31.3797 51.3574C30.8844 51.8292 30.6042 52.4834 30.6042 53.1674V190.087H13.0755C11.6948 190.087 10.5755 191.206 10.5755 192.587V222.065C4.4067 223.235 -0.257812 228.655 -0.257812 235.164C-0.257812 242.528 5.71172 248.497 13.0755 248.497C20.4393 248.497 26.4089 242.528 26.4089 235.164C26.4089 228.655 21.7443 223.235 15.5755 222.065V195.087H33.1042C34.4849 195.087 35.6042 193.967 35.6042 192.587V54.2385L83.1793 8.91151V25.6175C83.1793 26.9982 84.2986 28.1175 85.6793 28.1175H196.4L220.042 54.1336V79.0522H116.485C114.903 75.6009 111.42 73.2036 107.376 73.2036C101.846 73.2036 97.362 77.6889 97.362 83.2218C97.362 88.7546 101.846 93.2399 107.376 93.2399C111.539 93.2399 115.108 90.6995 116.619 87.0839L197.202 108.815L180.5 128.308H112.384H83.1758C81.8082 128.308 80.6945 129.407 80.676 130.774L79.8748 190.087H63.1471C61.7664 190.087 60.6471 191.206 60.6471 192.587V222.065C54.4783 223.235 49.8138 228.655 49.8138 235.164C49.8138 242.528 55.7833 248.497 63.1471 248.497C70.5109 248.497 76.4804 242.528 76.4804 235.164C76.4804 228.655 71.8159 223.235 65.6471 222.065V195.087H81.3054L124.906 238.704V284.42C124.906 285.076 125.164 285.707 125.625 286.174L181.653 343.049V413.826H168.044C166.874 407.657 161.454 402.992 154.945 402.992C147.581 402.992 141.612 408.962 141.612 416.326C141.612 423.689 147.581 429.659 154.945 429.659C161.454 429.659 166.874 424.994 168.044 418.826H184.153C184.844 418.826 185.504 418.54 185.976 418.036L224.365 377.129C224.8 376.665 225.042 376.054 225.042 375.418V315.53L254.435 286.92H315.174C316.224 286.92 317.162 286.264 317.522 285.278L338.867 226.912C339.172 226.94 339.48 226.954 339.792 226.954C345.322 226.954 349.806 222.469 349.806 216.936C349.806 211.403 345.322 206.918 339.792 206.918C334.261 206.918 329.777 211.403 329.777 216.936C329.777 218.942 330.367 220.811 331.382 222.377L318.201 237.673H228.87L193.729 186.169C193.264 185.486 192.491 185.078 191.664 185.078H156.195L117.383 133.308H181.65C182.38 133.308 183.073 132.989 183.548 132.435L203.577 109.059C204.135 108.407 204.32 107.515 204.067 106.695C203.814 105.875 203.158 105.242 202.329 105.019L124.58 84.0522H222.542C223.922 84.0522 225.042 82.9329 225.042 81.5522V53.1674C225.042 52.5457 224.81 51.9462 224.392 51.4861L199.356 23.9361C198.882 23.4147 198.21 23.1175 197.506 23.1175H88.1793V3.07663ZM129.174 235.901L84.8552 191.565L85.6422 133.308H111.134L152.945 189.077C153.417 189.707 154.158 190.078 154.945 190.078H190.343L225.484 241.582C225.949 242.265 226.722 242.673 227.549 242.673H319.347C320.074 242.673 320.766 242.356 321.241 241.805L333.152 227.982L313.426 281.92H253.419C252.768 281.92 252.142 282.174 251.675 282.628L222.504 311.022L188.323 279.158V266.63C194.491 265.46 199.156 260.04 199.156 253.53C199.156 246.167 193.186 240.197 185.823 240.197C178.459 240.197 172.489 246.167 172.489 253.53C172.489 260.04 177.154 265.46 183.323 266.63V280.246C183.323 280.939 183.611 281.601 184.118 282.074L220.042 315.562V374.429L186.653 410.008V342.024C186.653 341.368 186.395 340.737 185.934 340.27L129.906 283.395V237.668C129.906 237.006 129.642 236.37 129.174 235.901ZM88.2023 283.585C88.2023 290.949 94.1718 296.918 101.536 296.918C104.313 296.918 106.892 296.069 109.028 294.616L132.417 318.014V374.541L102.784 411.597V347.033V346.009L102.065 345.279L46.0359 288.404V255.2H41.0359V289.429V290.453L41.7549 291.183L97.7836 348.058V414.66H80.4194C79.2492 408.491 73.8293 403.827 67.32 403.827C59.9562 403.827 53.9867 409.797 53.9867 417.16C53.9867 424.524 59.9562 430.494 67.32 430.494C73.8293 430.494 79.2492 425.829 80.4194 419.66H101.536C102.295 419.66 103.014 419.315 103.488 418.722L136.869 376.979C137.224 376.536 137.417 375.986 137.417 375.418V316.979C137.417 316.316 137.153 315.68 136.685 315.211L112.564 291.081C114.019 288.945 114.869 286.364 114.869 283.585C114.869 276.221 108.899 270.252 101.536 270.252C94.1718 270.252 88.2023 276.221 88.2023 283.585ZM83.1752 60.69C87.3254 60.69 90.6931 57.3238 90.6931 53.1673C90.6931 49.0109 87.3254 45.6447 83.1752 45.6447C79.025 45.6447 75.6573 49.0109 75.6573 53.1673C75.6573 57.3238 79.025 60.69 83.1752 60.69ZM83.1752 65.69C90.0886 65.69 95.6931 60.0834 95.6931 53.1673C95.6931 46.2513 90.0886 40.6447 83.1752 40.6447C76.2617 40.6447 70.6573 46.2513 70.6573 53.1673C70.6573 60.0834 76.2617 65.69 83.1752 65.69Z" fill="url(#paint0_angular_383_125)"/>
</g>
<defs>
<radialGradient id="paint0_angular_383_125" cx="0" cy="0" r="1" gradientUnits="userSpaceOnUse" gradientTransform="translate(174.774 215.535) rotate(-58.3118) scale(145.353 118.365)">
<stop stop-color="#0089D6"/>
<stop offset="0.708333" stop-color="#9CEDFF"/>
<stop offset="1" stop-color="#0094FF"/>
</radialGradient>
</defs>
</svg>
