<svg width="261" height="320" viewBox="0 0 261 320" fill="none" xmlns="http://www.w3.org/2000/svg">
<g style="mix-blend-mode:screen" opacity="0.2">
<path fill-rule="evenodd" clip-rule="evenodd" d="M69.0428 2.50006C69.0428 1.4999 68.4467 0.595997 67.5274 0.202103C66.608 -0.19179 65.5424 0.000143055 64.8183 0.690045L26.2873 37.4003C25.7921 37.8721 25.5118 38.5263 25.5118 39.2103V138.887H13.3333C11.9526 138.887 10.8333 140.006 10.8333 141.387V159.491C4.66451 160.662 0 166.082 0 172.591C0 179.955 5.96954 185.924 13.3333 185.924C20.6971 185.924 26.6667 179.955 26.6667 172.591C26.6667 166.082 22.0022 160.662 15.8333 159.491V143.887H28.0118C29.3925 143.887 30.5118 142.768 30.5118 141.387V40.2814L64.0428 8.33494V19.0197C64.0428 20.4004 65.1621 21.5197 66.5428 21.5197H147.391L164.346 40.1765V57.5128H88.7708C87.4945 55.3473 85.1389 53.8943 82.4441 53.8943C78.3908 53.8943 75.1049 57.1815 75.1049 61.2364C75.1049 65.2913 78.3908 68.5784 82.4441 68.5784C85.2534 68.5784 87.694 66.9994 88.9275 64.6802L147.079 80.3619L135.727 93.6112H86.1141H64.708C63.3404 93.6112 62.2267 94.71 62.2082 96.0774L61.6299 138.887H50.0295C48.6488 138.887 47.5295 140.006 47.5295 141.387V159.491C41.3607 160.662 36.6962 166.082 36.6962 172.591C36.6962 179.955 42.6657 185.924 50.0295 185.924C57.3933 185.924 63.3628 179.955 63.3628 172.591C63.3628 166.082 58.6983 160.662 52.5295 159.491V143.887H63.0606L94.6229 175.462V208.689C94.6229 209.346 94.8812 209.976 95.342 210.444L136.212 251.931V302.86H130.405C129.235 296.691 123.815 292.026 117.306 292.026C109.942 292.026 103.973 297.996 103.973 305.36C103.973 312.723 109.942 318.693 117.306 318.693C123.815 318.693 129.235 314.028 130.405 307.86H138.712C139.403 307.86 140.062 307.574 140.535 307.07L168.669 277.09C169.104 276.627 169.346 276.015 169.346 275.38V231.771L190.491 211.189H234.734C235.783 211.189 236.721 210.534 237.082 209.548L252.798 166.574C256.841 166.562 260.115 163.28 260.115 159.232C260.115 155.177 256.829 151.89 252.775 151.89C248.722 151.89 245.436 155.177 245.436 159.232C245.436 160.45 245.732 161.598 246.257 162.609L236.646 173.762H171.836L146.281 136.307C145.816 135.624 145.043 135.216 144.216 135.216H118.556L91.1129 98.6112H136.877C137.607 98.6112 138.301 98.2921 138.776 97.7378L153.454 80.6063C154.012 79.9547 154.198 79.0621 153.944 78.2422C153.691 77.4222 153.035 76.7894 152.207 76.566L100.094 62.5128H166.846C168.226 62.5128 169.346 61.3935 169.346 60.0128V39.2103C169.346 38.5885 169.114 37.9891 168.696 37.529L150.348 17.3383C149.874 16.8169 149.202 16.5197 148.498 16.5197H69.0428V2.50006ZM98.8911 172.659L66.6104 140.366L67.1744 98.6112H84.8638L115.306 139.216C115.778 139.845 116.519 140.216 117.306 140.216H142.896L168.45 177.671C168.916 178.353 169.689 178.762 170.515 178.762H237.792C238.519 178.762 239.211 178.445 239.685 177.894L246.024 170.538L232.986 206.189H189.475C188.824 206.189 188.198 206.443 187.731 206.898L166.808 227.263L142.435 204.543V199.151C148.604 197.98 153.268 192.561 153.268 186.051C153.268 178.687 147.299 172.718 139.935 172.718C132.571 172.718 126.602 178.687 126.602 186.051C126.602 192.561 131.266 197.98 137.435 199.151V205.63C137.435 206.324 137.723 206.986 138.23 207.459L164.346 231.803V274.39L141.212 299.042V250.906C141.212 250.249 140.954 249.619 140.493 249.152L99.6229 207.665V174.426C99.6229 173.763 99.3597 173.128 98.8911 172.659ZM64.8303 208.077C64.8303 215.441 70.7998 221.411 78.1636 221.411C80.9411 221.411 83.5203 220.561 85.6556 219.108L100.128 233.586V274.503L79.7464 299.989V254.577V253.552L79.0273 252.823L38.1574 211.336V187.275H33.1574V212.36V213.385L33.8764 214.115L74.7464 255.602V303.471H66.1873C65.0171 297.302 59.5972 292.638 53.0879 292.638C45.7241 292.638 39.7546 298.608 39.7546 305.971C39.7546 313.335 45.7241 319.305 53.0879 319.305C59.5972 319.305 65.0171 314.64 66.1873 308.471H78.1636C78.9233 308.471 79.6417 308.126 80.1161 307.533L104.58 276.941C104.935 276.498 105.128 275.947 105.128 275.379V232.551C105.128 231.888 104.864 231.252 104.396 230.783L89.1918 215.574C90.6466 213.437 91.497 210.857 91.497 208.077C91.497 200.714 85.5274 194.744 78.1636 194.744C70.7998 194.744 64.8303 200.714 64.8303 208.077ZM64.7075 43.3878C67.011 43.3878 68.8816 41.5193 68.8816 39.2103C68.8816 36.9012 67.011 35.0327 64.7075 35.0327C62.4041 35.0327 60.5335 36.9012 60.5335 39.2103C60.5335 41.5193 62.4041 43.3878 64.7075 43.3878ZM64.7075 48.3878C69.7742 48.3878 73.8816 44.2789 73.8816 39.2103C73.8816 34.1416 69.7742 30.0327 64.7075 30.0327C59.6408 30.0327 55.5335 34.1416 55.5335 39.2103C55.5335 44.2789 59.6408 48.3878 64.7075 48.3878Z" fill="url(#paint0_angular_385_186)"/>
</g>
<defs>
<radialGradient id="paint0_angular_385_186" cx="0" cy="0" r="1" gradientUnits="userSpaceOnUse" gradientTransform="translate(130.057 159.652) rotate(-58.3002) scale(107.969 87.9403)">
<stop stop-color="#0089D6"/>
<stop offset="0.708333" stop-color="#9CEDFF"/>
<stop offset="1" stop-color="#0094FF"/>
</radialGradient>
</defs>
</svg>
