<svg width="416" height="511" viewBox="0 0 416 511" fill="none" xmlns="http://www.w3.org/2000/svg">
<g style="mix-blend-mode:screen">
<path fill-rule="evenodd" clip-rule="evenodd" d="M102.654 2.50006C102.654 1.4999 102.058 0.595997 101.139 0.202103C100.219 -0.19179 99.1537 0.000143051 98.4295 0.690045L35.5594 60.5893C35.0641 61.0612 34.7839 61.7153 34.7839 62.3993V226.619H13.3333C11.9526 226.619 10.8333 227.738 10.8333 229.119V266.934C4.66451 268.104 0 273.524 0 280.033C0 287.397 5.96954 293.367 13.3333 293.367C20.6971 293.367 26.6667 287.397 26.6667 280.033C26.6667 273.524 22.0022 268.104 15.8333 266.934V231.619H37.2839C38.6646 231.619 39.7839 230.5 39.7839 229.119V63.4705L97.654 8.33493V29.4547C97.654 30.8354 98.7733 31.9547 100.154 31.9547H232.772L261.316 63.3656V93.8423H137.203C135.426 89.4541 131.124 86.3589 126.1 86.3589C119.487 86.3589 114.125 91.7225 114.125 98.3388C114.125 104.955 119.487 110.319 126.1 110.319C131.252 110.319 135.644 107.065 137.334 102.499L234.391 128.672L213.767 152.743H132.088H97.1602C95.7927 152.743 94.6789 153.842 94.6604 155.209L93.6958 226.619H73.2097C71.829 226.619 70.7097 227.738 70.7097 229.119V266.934C64.5409 268.104 59.8763 273.524 59.8763 280.033C59.8763 287.397 65.8459 293.367 73.2097 293.367C80.5735 293.367 86.543 287.397 86.543 280.033C86.543 273.524 81.8785 268.104 75.7097 266.934V231.619H95.1264L147.551 284.064V338.934C147.551 339.591 147.809 340.221 148.27 340.689L215.411 408.843V494.169H196.082C194.912 488 189.492 483.336 182.983 483.336C175.619 483.336 169.65 489.305 169.65 496.669C169.65 504.033 175.619 510.002 182.983 510.002C189.492 510.002 194.912 505.338 196.082 499.169H217.911C218.601 499.169 219.261 498.883 219.734 498.38L265.639 449.462C266.074 448.999 266.316 448.387 266.316 447.751V375.929L301.756 341.434H374.587C375.637 341.434 376.575 340.779 376.935 339.793L402.419 270.11C402.945 270.18 403.481 270.216 404.026 270.216C410.639 270.216 416.001 264.853 416.001 258.237C416.001 251.62 410.639 246.257 404.026 246.257C397.412 246.257 392.05 251.62 392.05 258.237C392.05 260.817 392.866 263.207 394.253 265.163L378.431 283.523H271.124L228.957 221.72C228.492 221.037 227.719 220.629 226.892 220.629H184.233L137.087 157.743H214.917C215.647 157.743 216.34 157.424 216.815 156.87L240.766 128.917C241.324 128.265 241.509 127.373 241.256 126.553C241.003 125.733 240.347 125.1 239.518 124.876L142.977 98.8423H263.816C265.197 98.8423 266.316 97.723 266.316 96.3423V62.3993C266.316 61.7776 266.084 61.1782 265.666 60.718L235.728 27.7734C235.254 27.252 234.582 26.9547 233.878 26.9547H102.654V2.50006ZM151.819 281.261L98.6763 228.098L99.6267 157.743H130.838L180.983 224.629C181.455 225.258 182.196 225.629 182.983 225.629H225.572L267.739 287.432C268.204 288.115 268.977 288.523 269.804 288.523H379.577C380.304 288.523 380.996 288.206 381.471 287.655L397.468 269.092L372.84 336.434H300.74C300.088 336.434 299.463 336.689 298.996 337.143L263.779 371.421L222.407 332.855V315.096C228.576 313.926 233.24 308.506 233.24 301.996C233.24 294.633 227.27 288.663 219.907 288.663C212.543 288.663 206.573 294.633 206.573 301.996C206.573 308.506 211.238 313.926 217.407 315.096V333.943C217.407 334.636 217.695 335.299 218.202 335.771L261.316 375.961V446.762L220.411 490.352V407.819C220.411 407.162 220.153 406.532 219.692 406.064L152.551 337.91V283.028C152.551 282.365 152.288 281.73 151.819 281.261ZM105.782 337.936C105.782 345.3 111.751 351.269 119.115 351.269C121.893 351.269 124.472 350.42 126.607 348.967L156.533 378.904V446.875L120.118 492.41V413.808V412.784L119.399 412.054L52.2581 343.9V303.993H47.2581V344.924V345.949L47.9772 346.679L115.118 414.833V495.167H91.2989C90.1287 488.999 84.7088 484.334 78.1995 484.334C70.8357 484.334 64.8662 490.304 64.8662 497.667C64.8662 505.031 70.8357 511.001 78.1995 511.001C84.7088 511.001 90.1287 506.336 91.2989 500.167H119.115C119.875 500.167 120.593 499.822 121.068 499.229L160.985 449.313C161.34 448.869 161.533 448.319 161.533 447.751V377.869C161.533 377.206 161.269 376.57 160.801 376.101L130.143 345.432C131.598 343.296 132.448 340.715 132.448 337.936C132.448 330.572 126.479 324.603 119.115 324.603C111.751 324.603 105.782 330.572 105.782 337.936ZM97.16 72.3741C102.664 72.3741 107.129 67.91 107.129 62.3992C107.129 56.8885 102.664 52.4244 97.16 52.4244C91.656 52.4244 87.1909 56.8885 87.1909 62.3992C87.1909 67.91 91.656 72.3741 97.16 72.3741ZM97.16 77.3741C105.427 77.3741 112.129 70.6696 112.129 62.3992C112.129 54.1289 105.427 47.4244 97.16 47.4244C88.8928 47.4244 82.1909 54.1289 82.1909 62.3992C82.1909 70.6696 88.8928 77.3741 97.16 77.3741Z" fill="url(#paint0_angular_384_137)"/>
</g>
<defs>
<radialGradient id="paint0_angular_384_137" cx="0" cy="0" r="1" gradientUnits="userSpaceOnUse" gradientTransform="translate(208 255.5) rotate(-58.3171) scale(172.757 140.668)">
<stop stop-color="#0089D6"/>
<stop offset="0.708333" stop-color="#9CEDFF"/>
<stop offset="1" stop-color="#0094FF"/>
</radialGradient>
</defs>
</svg>
