<svg width="416" height="640" viewBox="0 0 416 640" fill="none" xmlns="http://www.w3.org/2000/svg">
<path fill-rule="evenodd" clip-rule="evenodd" d="M101.138 0.201989C102.058 0.595658 102.654 1.49905 102.654 2.49864V26.9394H233.877C234.582 26.9394 235.254 27.2365 235.728 27.7576L265.666 60.6835C266.084 61.1434 266.315 61.7425 266.315 62.3639V96.2876C266.315 97.6675 265.196 98.7861 263.815 98.7861H142.977L239.518 124.806C240.347 125.029 241.003 125.661 241.256 126.481C241.509 127.3 241.324 128.192 240.766 128.844L216.815 156.781C216.34 157.335 215.647 157.654 214.917 157.654H137.087L184.233 220.504H226.892C227.718 220.504 228.491 220.912 228.957 221.594L271.124 283.362H378.43L394.253 265.012C392.865 263.058 392.05 260.669 392.05 258.09C392.05 251.477 397.411 246.117 404.025 246.117C410.639 246.117 416 251.477 416 258.09C416 264.702 410.639 270.063 404.025 270.063C403.48 270.063 402.944 270.027 402.419 269.956L376.934 339.6C376.574 340.585 375.636 341.24 374.587 341.24H301.755L266.315 375.716V447.497C266.315 448.132 266.073 448.744 265.639 449.207L219.733 498.097C219.261 498.6 218.601 498.886 217.91 498.886H196.082C194.912 505.051 189.492 509.713 182.983 509.713C175.619 509.713 169.649 503.747 169.649 496.387C169.649 489.027 175.619 483.061 182.983 483.061C189.492 483.061 194.912 487.723 196.082 493.889H215.41V408.611L148.27 340.495C147.809 340.028 147.551 339.398 147.551 338.742V283.902L95.1263 231.487H75.7095V266.782C81.8783 267.952 86.5428 273.369 86.5428 279.874C86.5428 287.234 80.5733 293.2 73.2095 293.2C65.8457 293.2 59.8762 287.234 59.8762 279.874C59.8762 273.369 64.5407 267.952 70.7095 266.782V228.989C70.7095 227.609 71.8288 226.49 73.2095 226.49H93.6956L94.6603 155.121C94.6787 153.755 95.7925 152.656 97.16 152.656H132.088H213.766L234.391 128.599L137.333 102.441C135.643 107.004 131.252 110.256 126.1 110.256C119.486 110.256 114.125 104.895 114.125 98.2829C114.125 91.6704 119.486 86.3099 126.1 86.3099C131.124 86.3099 135.426 89.4033 137.203 93.789H261.315V63.3296L232.771 31.9366H100.154C98.7731 31.9366 97.6538 30.8179 97.6538 29.438V8.3302L39.7838 63.4344V228.989C39.7838 230.369 38.6645 231.487 37.2838 231.487H15.8333V266.782C22.0021 267.952 26.6666 273.369 26.6666 279.874C26.6666 287.234 20.6971 293.2 13.3333 293.2C5.96952 293.2 0 287.234 0 279.874C0 273.369 4.66451 267.952 10.8333 266.782V228.989C10.8333 227.609 11.9526 226.49 13.3333 226.49H34.7838V62.3639C34.7838 61.6803 35.0641 61.0265 35.5593 60.5549L98.4294 0.689653C99.1535 0.000142992 100.219 -0.191681 101.138 0.201989ZM98.6761 227.968L151.819 281.101C152.287 281.57 152.551 282.205 152.551 282.868V337.718L219.691 405.833C220.152 406.301 220.41 406.931 220.41 407.587V490.073L261.315 446.508V375.748L218.202 335.581C217.694 335.108 217.406 334.446 217.406 333.753V314.917C211.237 313.747 206.573 308.331 206.573 301.825C206.573 294.465 212.542 288.499 219.906 288.499C227.27 288.499 233.24 294.465 233.24 301.825C233.24 308.331 228.575 313.747 222.406 314.917V332.666L263.778 371.211L298.995 336.951C299.462 336.497 300.088 336.243 300.739 336.243H372.839L397.467 268.939L381.47 287.492C380.995 288.043 380.304 288.359 379.576 288.359H269.803C268.977 288.359 268.204 287.951 267.738 287.269L225.571 225.501H182.983C182.196 225.501 181.454 225.131 180.982 224.501L130.838 157.654H99.6265L98.6761 227.968ZM119.115 351.07C111.751 351.07 105.782 345.104 105.782 337.744C105.782 330.384 111.751 324.418 119.115 324.418C126.479 324.418 132.448 330.384 132.448 337.744C132.448 340.522 131.598 343.101 130.143 345.236L160.8 375.888C161.269 376.356 161.532 376.992 161.532 377.654V447.497C161.532 448.064 161.339 448.615 160.985 449.057L121.067 498.945C120.593 499.538 119.874 499.883 119.115 499.883H91.2987C90.1285 506.049 84.7087 510.711 78.1994 510.711C70.8356 510.711 64.8661 504.744 64.8661 497.385C64.8661 490.025 70.8356 484.059 78.1994 484.059C84.7087 484.059 90.1285 488.721 91.2987 494.886H115.118V414.597L47.9771 346.482L47.258 345.752V344.728V303.82H52.258V343.704L119.399 411.82L120.118 412.549V413.573V492.131L156.532 446.621V378.689L126.607 348.769C124.471 350.221 121.892 351.07 119.115 351.07ZM107.129 62.3638C107.129 67.8714 102.664 72.333 97.1598 72.333C91.6559 72.333 87.1908 67.8714 87.1908 62.3638C87.1908 56.8562 91.6559 52.3947 97.1598 52.3947C102.664 52.3947 107.129 56.8562 107.129 62.3638ZM112.129 62.3638C112.129 70.6295 105.427 77.3301 97.1598 77.3301C88.8926 77.3301 82.1908 70.6295 82.1908 62.3638C82.1908 54.0981 88.8926 47.3975 97.1598 47.3975C105.427 47.3975 112.129 54.0981 112.129 62.3638ZM43.9488 585.855H56.3919C55.9942 582.485 55.0851 579.495 53.6647 576.882C52.2632 574.27 50.445 572.065 48.2101 570.267C45.9753 568.45 43.409 567.068 40.5113 566.122C37.6325 565.175 34.5075 564.702 31.1363 564.702C26.0227 564.702 21.4204 565.875 17.3295 568.223C13.2386 570.551 9.99998 573.939 7.61362 578.387C5.22726 582.836 4.03408 588.23 4.03408 594.571C4.03408 600.893 5.20832 606.279 7.5568 610.727C9.92422 615.175 13.1439 618.573 17.2159 620.92C21.3068 623.267 25.9469 624.441 31.1363 624.441C34.8674 624.441 38.2102 623.882 41.1647 622.766C44.1382 621.63 46.695 620.096 48.8351 618.166C50.9942 616.216 52.7082 614.011 53.9772 611.55C55.265 609.071 56.07 606.496 56.3919 603.827L43.9488 603.771C43.6647 605.323 43.1533 606.705 42.4147 607.916C41.695 609.127 40.7859 610.159 39.6874 611.011C38.5889 611.844 37.3295 612.478 35.909 612.913C34.5075 613.348 32.9829 613.566 31.3352 613.566C28.3996 613.566 25.8143 612.847 23.5795 611.408C21.3447 609.97 19.6022 607.84 18.3522 605.02C17.1212 602.2 16.5056 598.717 16.5056 594.571C16.5056 590.539 17.1212 587.113 18.3522 584.293C19.5833 581.454 21.3162 579.296 23.5511 577.819C25.7859 576.324 28.409 575.576 31.4204 575.576C33.0871 575.576 34.6306 575.813 36.0511 576.286C37.4905 576.759 38.7594 577.441 39.8579 578.331C40.9564 579.22 41.856 580.299 42.5567 581.567C43.2575 582.817 43.7215 584.246 43.9488 585.855ZM68.6859 639.631C70.0306 639.877 71.47 640 73.0041 640C75.9965 640 78.5533 639.517 80.6746 638.552C82.7958 637.606 84.5477 636.252 85.9302 634.492C87.3317 632.75 88.4397 630.706 89.2541 628.359L106.214 580.034H93.4018L84.2825 612.061H83.828L74.7939 580.034H62.0666L77.72 624.895L77.0098 626.741C76.4795 628.103 75.7882 629.069 74.9359 629.637C74.1026 630.204 73.1083 630.469 71.953 630.432C70.8166 630.394 69.5382 630.157 68.1178 629.722L65.3905 638.751C66.2617 639.11 67.3602 639.404 68.6859 639.631ZM112.635 565.497V623.646H124.567V616.661H125.106C125.656 617.872 126.451 619.074 127.493 620.267C128.534 621.44 129.87 622.415 131.498 623.191C133.146 623.967 135.144 624.355 137.493 624.355C140.807 624.355 143.799 623.504 146.47 621.8C149.159 620.078 151.28 617.551 152.834 614.219C154.405 610.869 155.191 606.761 155.191 601.897C155.191 596.9 154.387 592.745 152.777 589.432C151.167 586.101 149.017 583.612 146.328 581.965C143.638 580.299 140.703 579.466 137.521 579.466C135.078 579.466 133.032 579.883 131.385 580.716C129.756 581.529 128.43 582.552 127.407 583.782C126.404 584.993 125.637 586.186 125.106 587.359H124.737V565.497H112.635ZM125.561 608.626C124.841 606.695 124.481 604.433 124.481 601.84C124.481 599.247 124.841 596.994 125.561 595.082C126.281 593.171 127.313 591.694 128.657 590.653C130.021 589.612 131.688 589.091 133.657 589.091C135.646 589.091 137.322 589.631 138.686 590.71C140.049 591.789 141.082 593.284 141.782 595.196C142.483 597.108 142.834 599.322 142.834 601.84C142.834 604.376 142.474 606.619 141.754 608.569C141.053 610.5 140.021 612.014 138.657 613.112C137.294 614.191 135.627 614.73 133.657 614.73C131.707 614.73 130.049 614.2 128.686 613.14C127.322 612.061 126.281 610.556 125.561 608.626ZM171.562 621.772C174.801 623.589 178.664 624.497 183.153 624.497C186.752 624.497 189.924 623.949 192.67 622.851C195.435 621.734 197.689 620.182 199.431 618.194C201.193 616.188 202.358 613.841 202.926 611.153L191.733 610.415C191.316 611.512 190.71 612.44 189.914 613.197C189.119 613.954 188.163 614.522 187.045 614.901C185.928 615.279 184.697 615.469 183.352 615.469C181.325 615.469 179.574 615.043 178.096 614.191C176.619 613.339 175.473 612.128 174.659 610.556C173.863 608.985 173.466 607.121 173.466 604.963V604.935H203.181V601.613C203.181 597.903 202.661 594.666 201.619 591.902C200.577 589.12 199.119 586.81 197.244 584.974C195.388 583.138 193.21 581.766 190.71 580.857C188.229 579.93 185.549 579.466 182.67 579.466C178.39 579.466 174.659 580.413 171.477 582.305C168.314 584.198 165.861 586.839 164.119 590.227C162.377 593.615 161.505 597.553 161.505 602.039C161.505 606.638 162.377 610.623 164.119 613.992C165.861 617.342 168.342 619.936 171.562 621.772ZM173.477 597.439C173.55 595.873 173.953 594.444 174.687 593.152C175.483 591.732 176.581 590.606 177.983 589.773C179.403 588.921 181.032 588.495 182.869 588.495C184.63 588.495 186.174 588.883 187.5 589.659C188.844 590.416 189.895 591.467 190.653 592.811C191.411 594.155 191.789 595.698 191.789 597.439H173.477ZM222.812 580.034H211.079V623.646H223.181V598.972C223.181 597.193 223.579 595.622 224.375 594.259C225.189 592.896 226.287 591.836 227.67 591.079C229.072 590.303 230.662 589.915 232.443 589.915C233.276 589.915 234.195 589.981 235.198 590.114C236.202 590.246 236.988 590.397 237.556 590.568V579.835C237.026 579.703 236.411 579.599 235.71 579.523C235.009 579.447 234.356 579.409 233.75 579.409C231.306 579.409 229.147 580.11 227.272 581.51C225.397 582.892 224.062 584.937 223.267 587.643H222.812V580.034ZM244.041 623.646H264.666C270.575 623.646 275.65 622.482 279.893 620.153C284.154 617.825 287.421 614.484 289.694 610.131C291.986 605.777 293.132 600.572 293.132 594.515C293.132 588.476 291.986 583.29 289.694 578.955C287.421 574.621 284.173 571.298 279.95 568.989C275.726 566.661 270.688 565.497 264.836 565.497H244.041V623.646ZM264.154 613.112H256.342V576.031H264.183C267.819 576.031 270.878 576.674 273.359 577.961C275.84 579.249 277.705 581.255 278.955 583.981C280.224 586.706 280.859 590.218 280.859 594.515C280.859 598.849 280.224 602.389 278.955 605.133C277.705 607.859 275.83 609.875 273.33 611.181C270.849 612.468 267.791 613.112 264.154 613.112ZM314.119 580.034H302.016V623.646H314.119V580.034ZM303.465 572.623C304.753 573.816 306.297 574.412 308.096 574.412C309.895 574.412 311.429 573.816 312.698 572.623C313.986 571.412 314.63 569.964 314.63 568.279C314.63 566.614 313.986 565.185 312.698 563.992C311.429 562.781 309.895 562.175 308.096 562.175C306.297 562.175 304.753 562.781 303.465 563.992C302.196 565.185 301.562 566.614 301.562 568.279C301.562 569.964 302.196 571.412 303.465 572.623ZM335.916 623.646V598.433C335.934 596.559 336.285 594.959 336.967 593.634C337.667 592.29 338.633 591.268 339.864 590.568C341.114 589.867 342.554 589.517 344.183 589.517C346.607 589.517 348.51 590.274 349.893 591.789C351.275 593.284 351.957 595.366 351.938 598.035V623.646H364.04V595.877C364.04 592.489 363.415 589.574 362.165 587.132C360.915 584.672 359.164 582.779 356.91 581.454C354.656 580.129 352.014 579.466 348.984 579.466C345.745 579.466 342.989 580.214 340.717 581.709C338.444 583.186 336.825 585.192 335.859 587.729H335.347V580.034H323.813V623.646H335.916ZM381.846 621.687C385.066 623.561 388.882 624.497 393.295 624.497C397.708 624.497 401.514 623.561 404.715 621.687C407.935 619.794 410.416 617.163 412.158 613.793C413.901 610.405 414.772 606.477 414.772 602.01C414.772 597.505 413.901 593.568 412.158 590.199C410.416 586.811 407.935 584.179 404.715 582.305C401.514 580.413 397.708 579.466 393.295 579.466C388.882 579.466 385.066 580.413 381.846 582.305C378.645 584.179 376.174 586.811 374.431 590.199C372.689 593.568 371.817 597.505 371.817 602.01C371.817 606.477 372.689 610.405 374.431 613.793C376.174 617.163 378.645 619.794 381.846 621.687ZM398.38 613.424C397.035 614.56 395.359 615.128 393.352 615.128C391.325 615.128 389.62 614.56 388.238 613.424C386.874 612.27 385.842 610.699 385.141 608.711C384.459 606.723 384.119 604.462 384.119 601.925C384.119 599.389 384.459 597.127 385.141 595.139C385.842 593.152 386.874 591.581 388.238 590.426C389.62 589.271 391.325 588.694 393.352 588.694C395.359 588.694 397.035 589.271 398.38 590.426C399.725 591.581 400.738 593.152 401.42 595.139C402.12 597.127 402.471 599.389 402.471 601.925C402.471 604.462 402.12 606.723 401.42 608.711C400.738 610.699 399.725 612.27 398.38 613.424Z" fill="#35C1F1"/>
</svg>
