<svg width="610" height="375" viewBox="0 0 610 375" fill="none" xmlns="http://www.w3.org/2000/svg">
<rect y="44.7988" width="570" height="330" fill="#184F85"/>
<rect x="29.75" width="580" height="346" fill="#50E6FF"/>
<path d="M371.875 217.274H375.781V201.649H371.875C359.82 202.399 347.957 205.035 336.719 209.462C347.957 213.889 359.82 216.525 371.875 217.274Z" fill="#7CB8EB"/>
<path d="M508.594 170.399V115.712H485.156C481.012 115.712 477.038 114.066 474.108 111.135C471.177 108.205 469.531 104.231 469.531 100.087C469.531 95.9429 471.177 91.9686 474.108 89.0384C477.038 86.1081 481.012 84.4619 485.156 84.4619H524.219C528.363 84.4619 532.337 86.1081 535.267 89.0384C538.198 91.9686 539.844 95.9429 539.844 100.087V232.899H375.781V201.649V193.837C375.781 187.621 378.251 181.659 382.646 177.264C387.041 172.869 393.003 170.399 399.219 170.399H508.594Z" fill="#7CB8EB"/>
<path d="M508.594 201.649V115.712H516.406C518.478 115.712 520.465 116.535 521.931 118C523.396 119.465 524.219 121.452 524.219 123.524V232.899H375.781V201.649H508.594Z" fill="#CDEEF6"/>
<path d="M473.438 182.118H465.625V189.931H473.438V182.118Z" fill="#4F83D1"/>
<path d="M457.812 170.399H450V182.118H457.812V170.399Z" fill="#4F83D1"/>
<path d="M442.188 182.118H434.375V189.931H442.188V182.118Z" fill="#4F83D1"/>
<path d="M426.562 170.399H418.75V182.118H426.562V170.399Z" fill="#4F83D1"/>
<path d="M489.062 170.399H481.25V182.118H489.062V170.399Z" fill="#4F83D1"/>
<path d="M410.938 182.118H403.125V189.931H410.938V182.118Z" fill="#4F83D1"/>
<path d="M498.828 100.087C502.064 100.087 504.688 97.4636 504.688 94.2275C504.688 90.9915 502.064 88.3682 498.828 88.3682C495.592 88.3682 492.969 90.9915 492.969 94.2275C492.969 97.4636 495.592 100.087 498.828 100.087Z" fill="#4F83D1"/>
<path d="M563.281 248.524H555.469C547.181 248.524 539.232 245.232 533.372 239.371C527.511 233.511 524.219 225.562 524.219 217.274H532.031C540.319 217.274 548.268 220.567 554.128 226.427C559.989 232.288 563.281 240.236 563.281 248.524Z" fill="#7CB8EB"/>
<path d="M453.906 256.337H430.469C430.469 245.977 434.584 236.041 441.91 228.716C449.236 221.39 459.171 217.274 469.531 217.274H492.969C492.969 227.634 488.853 237.57 481.528 244.896C474.202 252.221 464.266 256.337 453.906 256.337Z" fill="#7CB8EB"/>
<path d="M364.062 256.337H348.438C348.438 245.977 352.553 236.041 359.879 228.716C367.204 221.39 377.14 217.274 387.5 217.274H403.125C403.125 227.634 399.009 237.57 391.684 244.896C384.358 252.221 374.423 256.337 364.062 256.337Z" fill="#7CB8EB"/>
<path d="M543.75 215.419V100.087C543.744 94.9088 541.684 89.9446 538.023 86.2831C534.361 82.6216 529.397 80.5619 524.219 80.5557H485.156C479.976 80.5557 475.008 82.6134 471.346 86.2762C467.683 89.9391 465.625 94.9069 465.625 100.087C465.625 105.267 467.683 110.235 471.346 113.898C475.008 117.56 479.976 119.618 485.156 119.618H504.687V166.493H399.219C391.969 166.501 385.019 169.385 379.893 174.511C374.767 179.637 371.883 186.587 371.875 193.837V197.743C359.319 198.475 346.961 201.206 335.266 205.833C334.539 206.122 333.917 206.623 333.478 207.27C333.039 207.917 332.805 208.68 332.805 209.462C332.805 210.244 333.039 211.007 333.478 211.654C333.917 212.301 334.539 212.802 335.266 213.091C344.43 216.631 353.956 219.15 363.672 220.603C357.787 224.524 352.962 229.837 349.623 236.071C346.284 242.304 344.535 249.265 344.531 256.337V260.243H364.062C371.974 260.235 379.73 258.042 386.475 253.906C393.22 249.771 398.693 243.853 402.289 236.806H431.305C428.192 242.846 426.566 249.542 426.562 256.337V260.243H453.906C461.818 260.235 469.574 258.042 476.319 253.906C483.064 249.771 488.536 243.853 492.133 236.806H526.258C529.468 241.61 533.813 245.549 538.908 248.274C544.003 251 549.691 252.427 555.469 252.431H567.187V248.524C567.175 241.262 564.915 234.182 560.719 228.255C556.523 222.328 550.595 217.844 543.75 215.419ZM485.156 111.806C483.617 111.806 482.093 111.503 480.672 110.914C479.25 110.325 477.958 109.462 476.87 108.373C475.782 107.285 474.918 105.993 474.33 104.571C473.741 103.15 473.437 101.626 473.437 100.087C473.437 98.548 473.741 97.0241 474.33 95.6023C474.918 94.1806 475.782 92.8887 476.87 91.8005C477.958 90.7123 479.25 89.8491 480.672 89.2602C482.093 88.6713 483.617 88.3682 485.156 88.3682H524.219C527.327 88.3682 530.307 89.6028 532.505 91.8005C534.703 93.9982 535.937 96.9789 535.937 100.087V213.599C534.641 213.449 533.337 213.372 532.031 213.368H528.125V123.524C528.125 120.416 526.89 117.436 524.693 115.238C522.495 113.04 519.514 111.806 516.406 111.806H485.156ZM399.219 174.306H418.75V182.118H426.562V174.306H450V182.118H457.812V174.306H481.25V182.118H489.062V174.306H504.687V197.743H379.687V193.837C379.694 188.659 381.753 183.695 385.415 180.033C389.076 176.372 394.041 174.312 399.219 174.306ZM371.875 205.556V213.368C364.113 213.085 356.424 211.771 349.008 209.462C356.424 207.153 364.113 205.839 371.875 205.556ZM364.062 252.431H352.559C353.53 243.84 357.628 235.908 364.072 230.145C370.516 224.382 378.855 221.191 387.5 221.181H399.004C398.032 229.771 393.934 237.703 387.49 243.466C381.046 249.229 372.707 252.42 364.062 252.431ZM453.906 252.431H434.59C435.561 243.84 439.66 235.908 446.104 230.145C452.547 224.382 460.886 221.191 469.531 221.181H488.848C487.876 229.771 483.778 237.703 477.334 243.466C470.89 249.229 462.551 252.42 453.906 252.431ZM495.211 228.993C496.305 225.183 496.865 221.239 496.875 217.274V213.368H469.531C463.2 213.368 456.947 214.769 451.22 217.47C445.494 220.172 440.436 224.107 436.41 228.993H405.367C406.461 225.183 407.022 221.239 407.031 217.274V213.368H387.5C384.879 213.378 382.263 213.628 379.687 214.114V205.556H512.5V119.618H516.406C517.442 119.618 518.436 120.03 519.168 120.762C519.901 121.495 520.312 122.488 520.312 123.524V228.993H495.211ZM555.469 244.618C548.895 244.61 542.544 242.238 537.575 237.935C532.606 233.632 529.35 227.685 528.402 221.181H532.031C538.605 221.189 544.956 223.561 549.925 227.864C554.894 232.167 558.15 238.114 559.098 244.618H555.469Z" fill="#4F83D1"/>
<path d="M473.438 182.118H465.625V189.931H473.438V182.118Z" fill="#4F83D1"/>
<path d="M442.188 182.118H434.375V189.931H442.188V182.118Z" fill="#4F83D1"/>
<path d="M410.938 182.118H403.125V189.931H410.938V182.118Z" fill="#4F83D1"/>
<path d="M498.828 100.087C502.064 100.087 504.688 97.4636 504.688 94.2275C504.688 90.9915 502.064 88.3682 498.828 88.3682C495.592 88.3682 492.969 90.9915 492.969 94.2275C492.969 97.4636 495.592 100.087 498.828 100.087Z" fill="#4F83D1"/>
<path d="M201.969 268.056V244.618H186.344V283.681H233.219C233.219 279.537 231.573 275.562 228.642 272.632C225.712 269.702 221.738 268.056 217.594 268.056H201.969Z" fill="#CDEEF6"/>
<path d="M198.062 72.7432V154.774H108.219C106.147 154.774 104.16 153.951 102.694 152.486C101.229 151.021 100.406 149.034 100.406 146.962V139.149C100.406 137.077 101.229 135.09 102.694 133.625C104.16 132.16 106.147 131.337 108.219 131.337H155.094C155.094 127.193 153.448 123.219 150.517 120.288C147.587 117.358 143.613 115.712 139.469 115.712H100.406C94.1902 115.712 88.2288 118.181 83.8334 122.577C79.4381 126.972 76.9688 132.933 76.9688 139.149V154.774C76.9688 160.99 79.4381 166.952 83.8334 171.347C88.2288 175.743 94.1902 178.212 100.406 178.212H143.375V209.462H213.688C217.832 209.462 221.806 207.816 224.736 204.885C227.666 201.955 229.312 197.981 229.312 193.837V127.431H244.938V72.7432H198.062Z" fill="#7CB8EB"/>
<path d="M244.938 72.7432H287.906C292.05 72.7432 296.025 74.3894 298.955 77.3196C301.885 80.2499 303.531 84.2242 303.531 88.3682V96.1807H244.938V72.7432Z" fill="#CDEEF6"/>
<path d="M244.938 111.806H303.531C303.531 115.95 301.885 119.924 298.955 122.854C296.025 125.784 292.05 127.431 287.906 127.431H244.938V111.806Z" fill="#CDEEF6"/>
<path d="M198.062 57.1182C202.207 57.1182 206.181 58.7644 209.111 61.6946C212.041 64.6249 213.688 68.5992 213.688 72.7432H198.062V57.1182Z" fill="white"/>
<path d="M213.688 57.1182C217.832 57.1182 221.806 58.7644 224.736 61.6946C227.666 64.6249 229.312 68.5992 229.312 72.7432H213.688V57.1182Z" fill="white"/>
<path d="M229.312 57.1182C233.457 57.1182 237.431 58.7644 240.361 61.6946C243.291 64.6249 244.938 68.5992 244.938 72.7432H229.312V57.1182Z" fill="white"/>
<path d="M182.438 119.618C182.438 115.474 184.084 111.5 187.014 108.57C189.944 105.639 193.918 103.993 198.062 103.993V119.618H182.438Z" fill="white"/>
<path d="M182.438 135.243C182.438 131.099 184.084 127.125 187.014 124.195C189.944 121.264 193.918 119.618 198.062 119.618V135.243H182.438Z" fill="white"/>
<path d="M182.438 103.993C182.438 99.8492 184.084 95.8749 187.014 92.9446C189.944 90.0144 193.918 88.3682 198.062 88.3682V103.993H182.438Z" fill="white"/>
<path d="M182.438 88.3682C182.438 84.2242 184.084 80.2499 187.014 77.3196C189.944 74.3894 193.918 72.7432 198.062 72.7432V88.3682H182.438Z" fill="white"/>
<path d="M151.188 154.774H166.812C166.812 158.918 165.166 162.893 162.236 165.823C159.306 168.753 155.332 170.399 151.188 170.399V154.774Z" fill="white"/>
<path d="M166.812 154.774H182.438C182.438 158.918 180.791 162.893 177.861 165.823C174.931 168.753 170.957 170.399 166.812 170.399V154.774Z" fill="white"/>
<path d="M182.438 154.774H198.062C198.062 158.918 196.416 162.893 193.486 165.823C190.556 168.753 186.582 170.399 182.438 170.399V154.774Z" fill="white"/>
<path d="M227.359 96.1807C230.595 96.1807 233.219 93.5573 233.219 90.3213C233.219 87.0852 230.595 84.4619 227.359 84.4619C224.123 84.4619 221.5 87.0852 221.5 90.3213C221.5 93.5573 224.123 96.1807 227.359 96.1807Z" fill="#4F83D1"/>
<path d="M252.75 150.868H229.313V135.661C229.355 133.759 228.727 131.903 227.538 130.418C226.35 128.932 224.677 127.912 222.812 127.536C221.691 127.345 220.542 127.401 219.444 127.7C218.347 127.999 217.328 128.535 216.459 129.269C215.59 130.003 214.892 130.918 214.413 131.95C213.934 132.981 213.687 134.105 213.688 135.243V166.493H244.938V178.212C244.938 180.284 245.761 182.271 247.226 183.736C248.691 185.201 250.678 186.024 252.75 186.024C254.822 186.024 256.809 185.201 258.274 183.736C259.739 182.271 260.563 180.284 260.563 178.212V158.68C260.563 156.608 259.739 154.621 258.274 153.156C256.809 151.691 254.822 150.868 252.75 150.868Z" fill="#CDEEF6"/>
<path d="M162.906 189.931H143.375V197.743H162.906V189.931Z" fill="#4F83D1"/>
<path d="M178.531 189.931H170.719V197.743H178.531V189.931Z" fill="#4F83D1"/>
<path d="M201.969 244.618H186.344V209.462H209.781V236.806C209.781 238.878 208.958 240.865 207.493 242.33C206.028 243.795 204.041 244.618 201.969 244.618Z" fill="#7CB8EB"/>
<path d="M162.906 225.087V209.462H186.344V232.899H170.719C168.647 232.899 166.66 232.076 165.194 230.611C163.729 229.146 162.906 227.159 162.906 225.087Z" fill="#7CB8EB"/>
<path d="M139.469 225.087H162.906V209.462H123.844V256.337C127.988 256.337 131.962 254.691 134.892 251.76C137.823 248.83 139.469 244.856 139.469 240.712V225.087Z" fill="#CDEEF6"/>
<path d="M287.906 68.8369H248.453C247.547 64.4284 245.148 60.4672 241.661 57.621C238.175 54.7748 233.813 53.2176 229.312 53.2119H225.406V57.2197C222.045 54.6345 217.928 53.2263 213.688 53.2119H209.781V57.2197C206.42 54.6345 202.303 53.2263 198.062 53.2119H194.156V69.2275C189.748 70.1342 185.787 72.5329 182.94 76.0195C180.094 79.5061 178.537 83.8674 178.531 88.3682V92.2744H182.539C179.954 95.6353 178.546 99.753 178.531 103.993V107.899H182.539C179.954 111.26 178.546 115.378 178.531 119.618V123.524H182.539C179.954 126.885 178.546 131.003 178.531 135.243V139.149H194.156V150.868H108.219C107.183 150.868 106.189 150.457 105.457 149.724C104.724 148.991 104.312 147.998 104.312 146.962V139.149C104.312 138.113 104.724 137.12 105.457 136.387C106.189 135.655 107.183 135.243 108.219 135.243H159V131.337C159.003 128.771 158.499 126.23 157.519 123.86C156.538 121.489 155.099 119.335 153.285 117.521C151.471 115.706 149.317 114.268 146.946 113.287C144.575 112.307 142.034 111.803 139.469 111.806H100.406C93.1568 111.814 86.2066 114.697 81.0804 119.824C75.9543 124.95 73.0708 131.9 73.0625 139.149V154.774C73.0708 162.024 75.9543 168.974 81.0804 174.1C86.2066 179.226 93.1568 182.11 100.406 182.118H139.469V205.556H119.938V260.243H123.844C129.022 260.237 133.986 258.177 137.648 254.516C141.309 250.854 143.369 245.89 143.375 240.712V228.993H159.719C160.524 231.27 162.013 233.243 163.982 234.641C165.951 236.04 168.304 236.796 170.719 236.806H182.438V287.587H237.125V283.681C237.119 278.503 235.059 273.538 231.398 269.877C227.736 266.215 222.772 264.156 217.594 264.149H205.875V247.806C208.152 247.001 210.125 245.512 211.523 243.543C212.922 241.574 213.677 239.221 213.688 236.806V213.368C218.866 213.362 223.83 211.302 227.491 207.641C231.153 203.979 233.213 199.015 233.219 193.837V170.399H241.031V178.212C241.031 181.32 242.266 184.301 244.464 186.498C246.661 188.696 249.642 189.931 252.75 189.931C255.858 189.931 258.839 188.696 261.036 186.498C263.234 184.301 264.469 181.32 264.469 178.212V158.681C264.469 155.573 263.234 152.592 261.036 150.394C258.839 148.197 255.858 146.962 252.75 146.962H233.219V131.337H287.906C293.084 131.331 298.049 129.271 301.71 125.609C305.372 121.948 307.431 116.984 307.438 111.806V107.899H248.844V100.087H307.438V88.3682C307.431 83.1901 305.372 78.2258 301.71 74.5643C298.049 70.9029 293.084 68.8431 287.906 68.8369ZM233.219 61.6924C234.865 62.2788 236.36 63.2242 237.596 64.4599C238.832 65.6956 239.777 67.1907 240.363 68.8369H233.219V61.6924ZM217.594 61.6924C219.24 62.2788 220.735 63.2242 221.971 64.4599C223.207 65.6956 224.152 67.1907 224.738 68.8369H217.594V61.6924ZM201.969 61.6924C203.615 62.2788 205.11 63.2242 206.346 64.4599C207.582 65.6956 208.527 67.1907 209.113 68.8369H201.969V61.6924ZM187.012 115.712C187.598 114.066 188.543 112.571 189.779 111.335C191.015 110.099 192.51 109.154 194.156 108.567V115.712H187.012ZM187.012 100.087C187.598 98.4407 188.543 96.9456 189.779 95.7099C191.015 94.4742 192.51 93.5288 194.156 92.9424V100.087H187.012ZM194.156 77.3174V84.4619H187.012C187.598 82.8157 188.543 81.3206 189.779 80.0849C191.015 78.8492 192.51 77.9038 194.156 77.3174ZM187.012 131.337C187.598 129.691 188.543 128.196 189.779 126.96C191.015 125.724 192.51 124.779 194.156 124.192V131.337H187.012ZM193.488 158.681C192.902 160.327 191.957 161.822 190.721 163.058C189.485 164.293 187.99 165.239 186.344 165.825V158.681H193.488ZM177.863 158.681C177.277 160.327 176.332 161.822 175.096 163.058C173.86 164.293 172.365 165.239 170.719 165.825V158.681H177.863ZM162.238 158.681C161.652 160.327 160.707 161.822 159.471 163.058C158.235 164.293 156.74 165.239 155.094 165.825V158.681H162.238ZM135.562 221.181V240.712C135.56 243.135 134.807 245.498 133.408 247.476C132.01 249.454 130.033 250.952 127.75 251.763V213.368H159V221.181H135.562ZM170.719 228.993C169.683 228.993 168.689 228.582 167.957 227.849C167.224 227.116 166.812 226.123 166.812 225.087V213.368H182.438V228.993H170.719ZM217.594 271.962C220.017 271.965 222.379 272.717 224.358 274.116C226.336 275.515 227.834 277.491 228.645 279.774H190.25V248.524H198.062V271.962H217.594ZM205.875 236.806C205.875 237.842 205.463 238.835 204.731 239.568C203.998 240.3 203.005 240.712 201.969 240.712H190.25V213.368H205.875V236.806ZM252.75 154.774C253.786 154.774 254.78 155.186 255.512 155.919C256.245 156.651 256.656 157.645 256.656 158.681V178.212C256.656 179.248 256.245 180.241 255.512 180.974C254.78 181.707 253.786 182.118 252.75 182.118C251.714 182.118 250.72 181.707 249.988 180.974C249.255 180.241 248.844 179.248 248.844 178.212V162.587H217.594V135.243C217.593 134.676 217.717 134.116 217.955 133.601C218.193 133.086 218.54 132.63 218.973 132.263C219.409 131.888 219.924 131.616 220.48 131.465C221.035 131.315 221.618 131.292 222.184 131.396C223.13 131.627 223.967 132.178 224.554 132.955C225.141 133.732 225.442 134.688 225.406 135.661V154.774H252.75ZM298.957 115.712C298.146 117.995 296.649 119.972 294.67 121.37C292.692 122.769 290.329 123.521 287.906 123.524H248.844V115.712H298.957ZM241.031 123.524H225.406V124.2C224.773 123.966 224.119 123.792 223.453 123.681C221.772 123.397 220.049 123.483 218.405 123.933C216.761 124.383 215.234 125.187 213.933 126.288C212.631 127.389 211.585 128.76 210.868 130.307C210.151 131.854 209.78 133.538 209.781 135.243V170.399H225.406V193.837C225.406 196.945 224.172 199.926 221.974 202.123C219.776 204.321 216.796 205.556 213.688 205.556H147.281V197.743H162.906V189.931H147.281V174.306H100.406C95.2281 174.299 90.2639 172.24 86.6024 168.578C82.9409 164.917 80.8812 159.953 80.875 154.774V139.149C80.8812 133.971 82.9409 129.007 86.6024 125.346C90.2639 121.684 95.2281 119.624 100.406 119.618H139.469C142.568 119.619 145.541 120.843 147.742 123.024C148.979 124.272 149.926 125.776 150.516 127.431H108.219C105.111 127.431 102.13 128.665 99.9323 130.863C97.7346 133.061 96.5 136.041 96.5 139.149V146.962C96.5 150.07 97.7346 153.051 99.9323 155.248C102.13 157.446 105.111 158.681 108.219 158.681H147.281V174.306H151.188C155.428 174.291 159.545 172.883 162.906 170.298V174.306H166.812C171.053 174.291 175.17 172.883 178.531 170.298V174.306H182.438C186.938 174.3 191.3 172.743 194.786 169.897C198.273 167.05 200.672 163.089 201.578 158.681H201.969V76.6494H241.031V123.524ZM299.625 92.2744H248.844V76.6494H287.906C291.014 76.6494 293.995 77.8841 296.193 80.0818C298.39 82.2794 299.625 85.2602 299.625 88.3682V92.2744Z" fill="#4F83D1"/>
<path d="M227.359 96.1807C230.595 96.1807 233.219 93.5573 233.219 90.3213C233.219 87.0852 230.595 84.4619 227.359 84.4619C224.123 84.4619 221.5 87.0852 221.5 90.3213C221.5 93.5573 224.123 96.1807 227.359 96.1807Z" fill="#4F83D1"/>
<path d="M178.531 189.931H170.719V197.743H178.531V189.931Z" fill="#4F83D1"/>
</svg>
