<svg width="611" height="375" viewBox="0 0 611 375" fill="none" xmlns="http://www.w3.org/2000/svg">
<rect x="40.25" y="44.3994" width="570" height="330" fill="#88E9FF"/>
<rect width="580" height="346" fill="#104981"/>
<path d="M490.562 158.587C490.562 208.196 459.082 232.806 420.25 232.806C381.418 232.806 349.938 208.196 349.938 158.587C349.938 108.978 381.418 53.1182 420.25 53.1182C459.082 53.1182 490.562 108.978 490.562 158.587Z" fill="#CDEEF6"/>
<path d="M346.031 232.806H494.469C500.685 232.806 506.646 235.275 511.042 239.67C515.437 244.066 517.906 250.027 517.906 256.243V279.681H322.594V256.243C322.594 250.027 325.063 244.066 329.458 239.67C333.854 235.275 339.815 232.806 346.031 232.806Z" fill="#CDEEF6"/>
<path d="M404.625 213.274C411.097 213.274 416.344 208.028 416.344 201.556C416.344 195.084 411.097 189.837 404.625 189.837C398.153 189.837 392.906 195.084 392.906 201.556C392.906 208.028 398.153 213.274 404.625 213.274Z" fill="#7CB8EB"/>
<path d="M451.5 197.649C460.129 197.649 467.125 190.654 467.125 182.024C467.125 173.395 460.129 166.399 451.5 166.399C442.871 166.399 435.875 173.395 435.875 182.024C435.875 190.654 442.871 197.649 451.5 197.649Z" fill="#7CB8EB"/>
<path d="M455.406 142.962C461.878 142.962 467.125 137.715 467.125 131.243C467.125 124.771 461.878 119.524 455.406 119.524C448.934 119.524 443.688 124.771 443.688 131.243C443.688 137.715 448.934 142.962 455.406 142.962Z" fill="#7CB8EB"/>
<path d="M412.438 166.399C416.752 166.399 420.25 162.902 420.25 158.587C420.25 154.272 416.752 150.774 412.438 150.774C408.123 150.774 404.625 154.272 404.625 158.587C404.625 162.902 408.123 166.399 412.438 166.399Z" fill="#7CB8EB"/>
<path d="M381.125 116.317L373.438 114.919C377.734 91.3525 390.012 78.9814 399.566 72.79C405.672 68.7269 412.579 66.0227 419.82 64.8604L420.68 72.626L420.25 68.7432L420.695 72.6221C419.375 72.7783 388.293 76.8877 381.125 116.317Z" fill="#4F83D1"/>
<path d="M338.219 193.743H361.656C372.016 193.743 381.952 197.859 389.278 205.184C396.603 212.51 400.719 222.446 400.719 232.806H377.281C366.921 232.806 356.986 228.69 349.66 221.365C342.334 214.039 338.219 204.103 338.219 193.743Z" fill="#7CB8EB"/>
<path d="M463.219 232.806H439.781C439.781 227.676 440.792 222.596 442.755 217.857C444.718 213.118 447.595 208.812 451.222 205.184C454.85 201.557 459.156 198.68 463.895 196.717C468.634 194.754 473.714 193.743 478.844 193.743H502.281C502.281 204.103 498.166 214.039 490.84 221.365C483.514 228.69 473.579 232.806 463.219 232.806Z" fill="#7CB8EB"/>
<path d="M357.75 260.149H334.312V267.962H357.75V260.149Z" fill="#4F83D1"/>
<path d="M385.094 244.524H361.656V252.337H385.094V244.524Z" fill="#4F83D1"/>
<path d="M431.969 252.337H404.625V260.149H431.969V252.337Z" fill="#4F83D1"/>
<path d="M451.5 244.524H443.688V252.337H451.5V244.524Z" fill="#4F83D1"/>
<path d="M389 260.149H381.188V267.962H389V260.149Z" fill="#4F83D1"/>
<path d="M494.469 244.524H478.844V252.337H494.469V244.524Z" fill="#4F83D1"/>
<path d="M471.031 260.149H463.219V267.962H471.031V260.149Z" fill="#4F83D1"/>
<path d="M494.469 228.899H487.828C493.49 224.948 498.115 219.689 501.311 213.569C504.507 207.448 506.18 200.648 506.188 193.743V189.837H489.5C492.884 179.769 494.563 169.208 494.469 158.587C494.469 108.009 462.047 49.2119 420.25 49.2119C378.453 49.2119 346.031 108.009 346.031 158.587C345.937 169.208 347.616 179.769 351 189.837H334.312V193.743C334.32 200.648 335.993 207.448 339.189 213.569C342.385 219.689 347.01 224.948 352.672 228.899H346.031C338.782 228.908 331.832 231.791 326.705 236.917C321.579 242.043 318.696 248.994 318.688 256.243V283.587H521.812V256.243C521.804 248.994 518.921 242.043 513.795 236.917C508.668 231.791 501.718 228.908 494.469 228.899ZM463.219 228.899H443.902C444.874 220.309 448.972 212.377 455.416 206.614C461.86 200.851 470.199 197.66 478.844 197.649H498.16C497.189 206.24 493.09 214.172 486.646 219.935C480.203 225.698 471.864 228.889 463.219 228.899ZM451.5 193.743C449.182 193.743 446.917 193.056 444.989 191.768C443.062 190.481 441.56 188.65 440.673 186.509C439.786 184.368 439.554 182.011 440.006 179.738C440.459 177.465 441.575 175.377 443.214 173.738C444.852 172.099 446.941 170.983 449.214 170.531C451.487 170.079 453.843 170.311 455.985 171.198C458.126 172.085 459.956 173.587 461.244 175.514C462.531 177.441 463.219 179.707 463.219 182.024C463.219 185.132 461.984 188.113 459.786 190.311C457.589 192.509 454.608 193.743 451.5 193.743ZM353.844 158.587C353.844 112.587 383.465 57.0244 420.25 57.0244C457.035 57.0244 486.656 112.587 486.656 158.587C486.796 169.253 484.941 179.852 481.187 189.837H478.844C475.42 189.85 472.01 190.274 468.688 191.099C470.204 188.313 471.009 185.196 471.031 182.024C471.051 178.236 469.968 174.524 467.915 171.341C465.862 168.157 462.928 165.639 459.469 164.093C456.01 162.548 452.177 162.041 448.436 162.636C444.694 163.23 441.207 164.9 438.397 167.441C435.588 169.982 433.579 173.286 432.613 176.949C431.648 180.612 431.769 184.477 432.962 188.073C434.154 191.668 436.366 194.84 439.329 197.2C442.292 199.561 445.877 201.009 449.648 201.368C442.294 208.174 437.559 217.342 436.266 227.278C425.692 229.378 414.808 229.378 404.234 227.278C403.779 223.708 402.872 220.21 401.535 216.868C404.622 217.509 407.831 217.2 410.74 215.983C413.648 214.767 416.121 212.698 417.832 210.05C419.543 207.402 420.414 204.298 420.329 201.147C420.243 197.995 419.207 194.943 417.355 192.391C415.503 189.839 412.922 187.908 409.952 186.85C406.982 185.792 403.761 185.657 400.713 186.464C397.665 187.27 394.932 188.98 392.874 191.368C390.815 193.756 389.528 196.711 389.18 199.845C381.469 193.373 371.723 189.829 361.656 189.837H359.312C355.559 179.852 353.704 169.253 353.844 158.587ZM396.812 201.556C396.812 200.01 397.271 198.5 398.129 197.215C398.988 195.931 400.208 194.929 401.635 194.338C403.063 193.747 404.634 193.592 406.149 193.893C407.665 194.195 409.057 194.939 410.149 196.031C411.242 197.124 411.986 198.516 412.287 200.032C412.589 201.547 412.434 203.118 411.843 204.545C411.251 205.973 410.25 207.193 408.965 208.052C407.681 208.91 406.17 209.368 404.625 209.368C402.553 209.368 400.566 208.545 399.101 207.08C397.636 205.615 396.812 203.628 396.812 201.556ZM342.34 197.649H361.656C370.301 197.66 378.64 200.851 385.084 206.614C391.528 212.377 395.626 220.309 396.598 228.899H377.281C368.636 228.889 360.297 225.698 353.854 219.935C347.41 214.172 343.311 206.24 342.34 197.649ZM514 275.774H326.5V256.243C326.506 251.065 328.566 246.101 332.227 242.439C335.889 238.778 340.853 236.718 346.031 236.712H494.469C499.647 236.718 504.611 238.778 508.273 242.439C511.934 246.101 513.994 251.065 514 256.243V275.774Z" fill="#4F83D1"/>
<path d="M455.406 146.868C458.497 146.868 461.518 145.952 464.087 144.235C466.657 142.518 468.659 140.078 469.842 137.223C471.024 134.368 471.334 131.226 470.731 128.195C470.128 125.164 468.64 122.38 466.455 120.195C464.27 118.009 461.485 116.521 458.455 115.918C455.424 115.316 452.282 115.625 449.427 116.808C446.572 117.99 444.131 119.993 442.415 122.562C440.698 125.132 439.781 128.153 439.781 131.243C439.781 135.387 441.427 139.361 444.358 142.292C447.288 145.222 451.262 146.868 455.406 146.868ZM455.406 123.431C456.951 123.431 458.462 123.889 459.747 124.747C461.031 125.606 462.033 126.826 462.624 128.253C463.215 129.681 463.37 131.252 463.069 132.767C462.767 134.283 462.023 135.675 460.931 136.767C459.838 137.86 458.446 138.604 456.93 138.906C455.415 139.207 453.844 139.052 452.417 138.461C450.989 137.87 449.769 136.868 448.91 135.584C448.052 134.299 447.594 132.788 447.594 131.243C447.594 129.171 448.417 127.184 449.882 125.719C451.347 124.254 453.334 123.431 455.406 123.431Z" fill="#4F83D1"/>
<path d="M400.719 158.587C400.719 160.905 401.406 163.17 402.694 165.097C403.981 167.025 405.812 168.527 407.953 169.414C410.094 170.301 412.451 170.533 414.724 170.08C416.997 169.628 419.085 168.512 420.724 166.873C422.363 165.234 423.479 163.146 423.931 160.873C424.383 158.6 424.151 156.244 423.264 154.102C422.377 151.961 420.875 150.131 418.948 148.843C417.021 147.555 414.755 146.868 412.438 146.868C409.329 146.868 406.349 148.103 404.151 150.301C401.953 152.498 400.719 155.479 400.719 158.587ZM416.344 158.587C416.344 159.359 416.115 160.115 415.685 160.757C415.256 161.399 414.646 161.9 413.932 162.196C413.219 162.491 412.433 162.569 411.675 162.418C410.918 162.267 410.222 161.895 409.675 161.349C409.129 160.803 408.757 160.107 408.606 159.349C408.456 158.591 408.533 157.806 408.829 157.092C409.124 156.378 409.625 155.768 410.267 155.339C410.91 154.91 411.665 154.681 412.438 154.681C413.474 154.681 414.467 155.092 415.2 155.825C415.932 156.557 416.344 157.551 416.344 158.587Z" fill="#4F83D1"/>
<path d="M420.695 72.6221L420.25 68.7432L419.82 64.8604C412.579 66.0227 405.672 68.7269 399.566 72.79C390.012 79.001 377.723 91.3525 373.438 114.919L381.125 116.317C388.293 76.8877 419.375 72.7783 420.695 72.6221Z" fill="#4F83D1"/>
<path d="M357.75 260.149H334.312V267.962H357.75V260.149Z" fill="#4F83D1"/>
<path d="M385.094 244.524H361.656V252.337H385.094V244.524Z" fill="#4F83D1"/>
<path d="M431.969 252.337H404.625V260.149H431.969V252.337Z" fill="#4F83D1"/>
<path d="M451.5 244.524H443.688V252.337H451.5V244.524Z" fill="#4F83D1"/>
<path d="M389 260.149H381.188V267.962H389V260.149Z" fill="#4F83D1"/>
<path d="M494.469 244.524H478.844V252.337H494.469V244.524Z" fill="#4F83D1"/>
<path d="M471.031 260.149H463.219V267.962H471.031V260.149Z" fill="#4F83D1"/>
<path d="M165.25 279.681C227.814 279.681 278.531 228.963 278.531 166.399C278.531 103.836 227.814 53.1182 165.25 53.1182C102.686 53.1182 51.9688 103.836 51.9688 166.399C51.9688 228.963 102.686 279.681 165.25 279.681Z" fill="#CDEEF6"/>
<path d="M227.75 170.306V154.681C227.75 150.537 226.104 146.562 223.174 143.632C220.243 140.702 216.269 139.056 212.125 139.056L157.438 131.243C157.438 127.099 155.791 123.125 152.861 120.195C149.931 117.264 145.957 115.618 141.812 115.618H118.375C114.231 115.618 110.257 117.264 107.326 120.195C104.396 123.125 102.75 127.099 102.75 131.243V154.681C102.75 158.825 104.396 162.799 107.326 165.729C110.257 168.659 114.231 170.306 118.375 170.306H122.281V193.743C122.281 199.959 124.751 205.921 129.146 210.316C133.541 214.711 139.503 217.181 145.719 217.181H208.219C210.291 217.181 212.278 216.358 213.743 214.892C215.208 213.427 216.031 211.44 216.031 209.368V201.556H161.344C159.272 201.556 157.285 200.733 155.819 199.267C154.354 197.802 153.531 195.815 153.531 193.743V170.306H227.75Z" fill="#7CB8EB"/>
<path d="M153.531 166.399H141.812V174.212H153.531V166.399Z" fill="#4F83D1"/>
<path d="M227.75 170.306H219.938V182.024H227.75V170.306Z" fill="#4F83D1"/>
<path d="M212.125 170.306H204.312V182.024H212.125V170.306Z" fill="#4F83D1"/>
<path d="M196.5 170.306H188.688V182.024H196.5V170.306Z" fill="#4F83D1"/>
<path d="M180.875 170.306H173.062V182.024H180.875V170.306Z" fill="#4F83D1"/>
<path d="M141.812 131.243H126.188V146.868H141.812V131.243Z" fill="white"/>
<path d="M193.36 146.945L191.827 154.605L211.359 158.512L212.891 150.851L193.36 146.945Z" fill="#4F83D1"/>
<path d="M176.969 189.837H169.156V201.556H176.969V189.837Z" fill="#4F83D1"/>
<path d="M192.594 189.837H184.781V201.556H192.594V189.837Z" fill="#4F83D1"/>
<path d="M208.219 189.837H200.406V201.556H208.219V189.837Z" fill="#4F83D1"/>
<path d="M204.312 103.899C210.785 103.899 216.031 98.6528 216.031 92.1807C216.031 85.7086 210.785 80.4619 204.312 80.4619C197.84 80.4619 192.594 85.7086 192.594 92.1807C192.594 98.6528 197.84 103.899 204.312 103.899Z" fill="white"/>
<path d="M87.125 217.181C93.5971 217.181 98.8438 211.934 98.8438 205.462C98.8438 198.99 93.5971 193.743 87.125 193.743C80.6529 193.743 75.4062 198.99 75.4062 205.462C75.4062 211.934 80.6529 217.181 87.125 217.181Z" fill="white"/>
<path d="M86.6602 117.47L79.7773 113.766C107.996 61.368 164.969 64.7899 165.527 64.8368L164.977 72.6493C162.863 72.5008 112.434 69.6102 86.6602 117.47Z" fill="#4F83D1"/>
<path d="M165.25 267.962V260.149C165.773 260.149 217.684 259.587 235.918 219.47L243.027 222.704C222.672 267.446 167.594 267.962 165.25 267.962Z" fill="#4F83D1"/>
<path d="M157.438 260.149H149.625V267.962H157.438V260.149Z" fill="#4F83D1"/>
<path d="M247.281 209.368C251.596 209.368 255.094 205.87 255.094 201.556C255.094 197.241 251.596 193.743 247.281 193.743C242.967 193.743 239.469 197.241 239.469 201.556C239.469 205.87 242.967 209.368 247.281 209.368Z" fill="white"/>
<path d="M176.969 88.2744H161.344V96.0869H176.969V88.2744Z" fill="#4F83D1"/>
<path d="M126.188 228.899H110.562V236.712H126.188V228.899Z" fill="#4F83D1"/>
<path d="M83.2188 162.493H67.5938V170.306H83.2188V162.493Z" fill="#4F83D1"/>
<path d="M145.719 146.868V131.243C145.719 130.207 145.307 129.214 144.575 128.481C143.842 127.748 142.849 127.337 141.812 127.337H126.188C125.151 127.337 124.158 127.748 123.425 128.481C122.693 129.214 122.281 130.207 122.281 131.243V146.868C122.281 147.904 122.693 148.898 123.425 149.63C124.158 150.363 125.151 150.774 126.188 150.774H141.812C142.849 150.774 143.842 150.363 144.575 149.63C145.307 148.898 145.719 147.904 145.719 146.868ZM137.906 142.962H130.094V135.149H137.906V142.962Z" fill="#4F83D1"/>
<path d="M219.938 209.368V197.649H208.219V189.837H200.406V197.649H192.594V189.837H184.781V197.649H176.969V189.837H169.156V197.649H161.344C160.308 197.649 159.314 197.238 158.582 196.505C157.849 195.773 157.438 194.779 157.438 193.743V174.212H173.062V182.024H180.875V174.212H188.688V182.024H196.5V174.212H204.312V182.024H212.125V174.212H219.938V182.024H227.75V174.212H231.656V154.681C231.657 149.551 229.639 144.627 226.04 140.973C222.44 137.318 217.547 135.226 212.418 135.149L161.043 127.813C160.231 123.302 157.861 119.219 154.347 116.276C150.832 113.334 146.396 111.718 141.812 111.712H118.375C113.197 111.718 108.233 113.778 104.571 117.439C100.91 121.101 98.85 126.065 98.8438 131.243V154.681C98.85 159.859 100.91 164.823 104.571 168.484C108.233 172.146 113.197 174.206 118.375 174.212V193.743C118.384 200.992 121.268 207.942 126.394 213.068C131.52 218.194 138.47 221.078 145.719 221.087H208.219C211.327 221.087 214.307 219.852 216.505 217.655C218.703 215.457 219.938 212.476 219.938 209.368ZM126.188 193.743V166.399H118.375C115.267 166.399 112.286 165.165 110.089 162.967C107.891 160.769 106.656 157.789 106.656 154.681V131.243C106.656 128.135 107.891 125.154 110.089 122.957C112.286 120.759 115.267 119.524 118.375 119.524H141.812C144.921 119.524 147.901 120.759 150.099 122.957C152.297 125.154 153.531 128.135 153.531 131.243V134.63L211.57 142.923L212.125 142.962C215.233 142.962 218.214 144.197 220.411 146.394C222.609 148.592 223.844 151.573 223.844 154.681V166.399H141.812V174.212H149.625V193.743C149.625 196.851 150.86 199.832 153.057 202.03C155.255 204.227 158.236 205.462 161.344 205.462H212.125V209.368C212.125 210.404 211.713 211.398 210.981 212.13C210.248 212.863 209.255 213.274 208.219 213.274H145.719C140.541 213.268 135.576 211.208 131.915 207.547C128.253 203.886 126.194 198.921 126.188 193.743Z" fill="#4F83D1"/>
<path d="M193.36 146.945L191.827 154.605L211.359 158.512L212.891 150.851L193.36 146.945Z" fill="#4F83D1"/>
<path d="M165.25 49.2119C142.072 49.2119 119.415 56.0848 100.144 68.9616C80.8727 81.8383 65.8525 100.14 56.9829 121.554C48.1132 142.967 45.7925 166.529 50.3142 189.262C54.8359 211.994 65.9969 232.875 82.3859 249.263C98.7749 265.652 119.656 276.813 142.388 281.335C165.12 285.857 188.682 283.536 210.096 274.667C231.509 265.797 249.811 250.777 262.688 231.505C275.565 212.234 282.437 189.577 282.437 166.399C282.402 135.33 270.045 105.543 248.075 83.5742C226.106 61.6049 196.319 49.2471 165.25 49.2119ZM165.25 275.774C143.618 275.774 122.471 269.36 104.484 257.341C86.4979 245.323 72.479 228.241 64.2007 208.255C55.9223 188.27 53.7563 166.278 57.9766 145.061C62.1969 123.845 72.6138 104.356 87.9102 89.0596C103.207 73.7632 122.695 63.3463 143.912 59.126C165.129 54.9058 187.12 57.0718 207.106 65.3501C227.092 73.6284 244.174 87.6473 256.192 105.634C268.21 123.621 274.625 144.767 274.625 166.399C274.592 195.397 263.058 223.198 242.553 243.703C222.049 264.207 194.248 275.741 165.25 275.774Z" fill="#4F83D1"/>
<path d="M204.312 107.806C207.403 107.806 210.424 106.889 212.993 105.172C215.563 103.455 217.565 101.015 218.748 98.1601C219.931 95.305 220.24 92.1633 219.637 89.1324C219.034 86.1014 217.546 83.3173 215.361 81.1321C213.176 78.9469 210.392 77.4588 207.361 76.8559C204.33 76.253 201.188 76.5624 198.333 77.7451C195.478 78.9277 193.038 80.9304 191.321 83.4999C189.604 86.0694 188.688 89.0903 188.688 92.1807C188.688 96.3247 190.334 100.299 193.264 103.229C196.194 106.159 200.168 107.806 204.312 107.806ZM204.312 84.3682C205.858 84.3682 207.368 84.8264 208.653 85.6848C209.938 86.5433 210.939 87.7634 211.53 89.191C212.122 90.6185 212.276 92.1893 211.975 93.7048C211.673 95.2203 210.929 96.6123 209.837 97.7049C208.744 98.7975 207.352 99.5416 205.837 99.8431C204.321 100.145 202.75 99.9898 201.323 99.3985C199.895 98.8072 198.675 97.8058 197.817 96.5211C196.958 95.2363 196.5 93.7258 196.5 92.1807C196.5 90.1087 197.323 88.1215 198.788 86.6564C200.253 85.1913 202.24 84.3682 204.312 84.3682Z" fill="#4F83D1"/>
<path d="M87.125 189.837C84.0347 189.837 81.0137 190.753 78.4442 192.47C75.8747 194.187 73.872 196.627 72.6894 199.482C71.5068 202.338 71.1973 205.479 71.8002 208.51C72.4031 211.541 73.8913 214.325 76.0765 216.51C78.2617 218.696 81.0458 220.184 84.0767 220.787C87.1077 221.39 90.2493 221.08 93.1044 219.898C95.9595 218.715 98.3998 216.712 100.117 214.143C101.834 211.573 102.75 208.552 102.75 205.462C102.75 201.318 101.104 197.344 98.1736 194.413C95.2433 191.483 91.269 189.837 87.125 189.837ZM87.125 213.274C85.5798 213.274 84.0694 212.816 82.7846 211.958C81.4999 211.099 80.4985 209.879 79.9072 208.452C79.3159 207.024 79.1612 205.453 79.4626 203.938C79.7641 202.422 80.5081 201.03 81.6007 199.938C82.6933 198.845 84.0854 198.101 85.6009 197.8C87.1163 197.498 88.6872 197.653 90.1147 198.244C91.5423 198.835 92.7624 199.837 93.6209 201.122C94.4793 202.406 94.9375 203.917 94.9375 205.462C94.9375 207.534 94.1144 209.521 92.6493 210.986C91.1842 212.451 89.197 213.274 87.125 213.274Z" fill="#4F83D1"/>
<path d="M164.977 72.6491L165.527 64.8366C164.969 64.778 107.996 61.3561 79.7773 113.755L86.6602 117.458C112.434 69.6101 162.863 72.5007 164.977 72.6491Z" fill="#4F83D1"/>
<path d="M165.25 260.149V267.962C167.594 267.962 222.672 267.446 243.023 222.704L235.914 219.47C217.68 259.587 165.77 260.149 165.25 260.149Z" fill="#4F83D1"/>
<path d="M157.438 260.149H149.625V267.962H157.438V260.149Z" fill="#4F83D1"/>
<path d="M235.563 201.556C235.563 203.873 236.25 206.139 237.537 208.066C238.825 209.993 240.655 211.495 242.797 212.382C244.938 213.269 247.294 213.501 249.567 213.049C251.841 212.597 253.929 211.481 255.568 209.842C257.207 208.203 258.323 206.115 258.775 203.842C259.227 201.569 258.995 199.212 258.108 197.071C257.221 194.93 255.719 193.1 253.792 191.812C251.865 190.524 249.599 189.837 247.281 189.837C244.173 189.837 241.193 191.072 238.995 193.269C236.797 195.467 235.563 198.448 235.563 201.556ZM247.281 197.649C248.054 197.649 248.809 197.879 249.451 198.308C250.094 198.737 250.594 199.347 250.89 200.061C251.186 200.775 251.263 201.56 251.112 202.318C250.962 203.075 250.59 203.772 250.043 204.318C249.497 204.864 248.801 205.236 248.043 205.387C247.286 205.538 246.5 205.46 245.786 205.165C245.073 204.869 244.463 204.368 244.033 203.726C243.604 203.083 243.375 202.328 243.375 201.556C243.375 200.52 243.787 199.526 244.519 198.794C245.252 198.061 246.245 197.649 247.281 197.649Z" fill="#4F83D1"/>
<path d="M176.969 88.2744H161.344V96.0869H176.969V88.2744Z" fill="#4F83D1"/>
<path d="M126.188 228.899H110.562V236.712H126.188V228.899Z" fill="#4F83D1"/>
<path d="M83.2188 162.493H67.5938V170.306H83.2188V162.493Z" fill="#4F83D1"/>
</svg>
